<svg width="25" height="24" viewBox="0 0 25 24" fill="none" xmlns="http://www.w3.org/2000/svg">
<path d="M16.4548 10.8301H13.3948L12.6348 13.1201H14.9247C15.7647 13.1201 16.4548 13.8001 16.4548 14.6501C16.4548 15.4901 15.7747 16.1801 14.9247 16.1801H12.6348" stroke="#F8F9FA" stroke-width="1.5" stroke-linecap="round" stroke-linejoin="round"/>
<path d="M10.0332 16.17V10.8301L8.5332 12.5001" stroke="#F8F9FA" stroke-width="1.5" stroke-linecap="round" stroke-linejoin="round"/>
<path d="M10.5137 4.46997L12.4937 2" stroke="#F8F9FA" stroke-width="1.5" stroke-linecap="round" stroke-linejoin="round"/>
<path d="M5.4035 7.79974C4.2935 9.27974 3.60352 11.1097 3.60352 13.1097C3.60352 18.0197 7.58353 21.9998 12.4935 21.9998C17.4035 21.9998 21.3835 18.0197 21.3835 13.1097C21.3835 8.19974 17.4035 4.21973 12.4935 4.21973C11.8135 4.21973 11.1535 4.30978 10.5135 4.45978" stroke="#F8F9FA" stroke-width="1.5" stroke-linecap="round" stroke-linejoin="round"/>
</svg>
