<svg width="25" height="24" viewBox="0 0 25 24" fill="none" xmlns="http://www.w3.org/2000/svg">
<path d="M16.4645 10.8301H13.4045L12.6445 13.1201H14.9345C15.7745 13.1201 16.4645 13.8001 16.4645 14.6501C16.4645 15.4901 15.7845 16.1801 14.9345 16.1801H12.6445" stroke="#F8F9FA" stroke-width="1.5" stroke-linecap="round" stroke-linejoin="round"/>
<path d="M10.0449 16.17V10.8301L8.54492 12.5001" stroke="#F8F9FA" stroke-width="1.5" stroke-linecap="round" stroke-linejoin="round"/>
<path d="M14.4858 4.46997L12.5059 2" stroke="#F8F9FA" stroke-width="1.5" stroke-linecap="round" stroke-linejoin="round"/>
<path d="M19.5953 7.79974C20.7053 9.27974 21.3953 11.1097 21.3953 13.1097C21.3953 18.0197 17.4152 21.9998 12.5052 21.9998C7.59525 21.9998 3.61523 18.0197 3.61523 13.1097C3.61523 8.19974 7.59525 4.21973 12.5052 4.21973C13.1852 4.21973 13.8452 4.30978 14.4852 4.45978" stroke="#F8F9FA" stroke-width="1.5" stroke-linecap="round" stroke-linejoin="round"/>
</svg>
