<svg width="25" height="25" viewBox="0 0 25 25" fill="none" xmlns="http://www.w3.org/2000/svg">
<path fill-rule="evenodd" clip-rule="evenodd" d="M7.20313 3.99243C6.51277 3.99243 5.95312 4.55208 5.95312 5.24243V19.7577C5.95312 20.4481 6.51277 21.0077 7.20312 21.0077H17.7969C18.4872 21.0077 19.0469 20.4481 19.0469 19.7577V10.4299H15.4219C13.9031 10.4299 12.6719 9.19871 12.6719 7.67993V3.99243H7.20313ZM14.1719 4.78271L18.3822 8.92993H15.4219C14.7315 8.92993 14.1719 8.37029 14.1719 7.67993V4.78271ZM4.45312 5.24243C4.45312 3.72365 5.68434 2.49243 7.20313 2.49243H12.8573C13.5795 2.49243 14.2726 2.77649 14.7871 3.28326L19.7267 8.14877C20.2514 8.66564 20.5469 9.3714 20.5469 10.1079V19.7577C20.5469 21.2765 19.3157 22.5077 17.7969 22.5077H7.20312C5.68434 22.5077 4.45312 21.2765 4.45312 19.7577V5.24243ZM12.5 11.4143C12.9142 11.4143 13.25 11.7501 13.25 12.1643V13.7659H14.8516C15.2658 13.7659 15.6016 14.1017 15.6016 14.5159C15.6016 14.9301 15.2658 15.2659 14.8516 15.2659H13.25V16.8674C13.25 17.2816 12.9142 17.6174 12.5 17.6174C12.0858 17.6174 11.75 17.2816 11.75 16.8674V15.2659H10.1484C9.73422 15.2659 9.39844 14.9301 9.39844 14.5159C9.39844 14.1017 9.73422 13.7659 10.1484 13.7659H11.75V12.1643C11.75 11.7501 12.0858 11.4143 12.5 11.4143Z" fill="#049B8F"/>
</svg>
