<svg width="24" height="24" viewBox="0 0 24 24" fill="none" xmlns="http://www.w3.org/2000/svg">
<path fill-rule="evenodd" clip-rule="evenodd" d="M5.1039 19.931H10.6211V21.3103H5.1039C4.73843 21.3092 4.38823 21.1636 4.1298 20.9051C3.87137 20.6467 3.7257 20.2965 3.72461 19.931V3.37953C3.7257 3.01405 3.87137 2.66386 4.1298 2.40543C4.38823 2.14699 4.73843 2.00133 5.1039 2.00023H12.0004C12.091 1.99775 12.1811 2.01497 12.2645 2.05069C12.3478 2.08641 12.4224 2.13978 12.4831 2.20713L17.3106 7.03465C17.378 7.0954 17.4313 7.17001 17.467 7.25335C17.5027 7.33668 17.52 7.42677 17.5175 7.51741V10.9656H16.1382V8.8967H12.0004C11.6349 8.89561 11.2847 8.74994 11.0263 8.49151C10.7678 8.23308 10.6222 7.88288 10.6211 7.51741V3.37953H5.1039V19.931ZM15.8624 7.51741L12.0004 3.65539V7.51741H15.8624ZM19.1554 21.8483C19.2777 21.9464 19.4297 21.9999 19.5865 22C19.7694 22 19.9448 21.9273 20.0741 21.798C20.2035 21.6687 20.2761 21.4933 20.2761 21.3104V12.345C20.2759 12.2152 20.2391 12.0881 20.17 11.9783C20.1008 11.8685 20.002 11.7805 19.8851 11.7243C19.7681 11.6681 19.6376 11.646 19.5087 11.6607C19.3797 11.6753 19.2575 11.726 19.1561 11.807L15.8969 14.4139H13.3797C13.1968 14.4139 13.0213 14.4865 12.892 14.6159C12.7627 14.7452 12.69 14.9206 12.69 15.1035V18.5518C12.69 18.7347 12.7627 18.9101 12.892 19.0394C13.0213 19.1688 13.1968 19.2414 13.3797 19.2414H15.8969L19.1554 21.8483ZM16.1382 17.8621H14.0693V15.7932H16.1382C16.2948 15.7929 16.4465 15.7394 16.5686 15.6415L18.8968 13.7794V19.8759L16.5693 18.0138C16.447 17.9158 16.295 17.8622 16.1382 17.8621Z" fill="#343A40"/>
</svg>
