<svg width="32" height="32" viewBox="0 0 32 32" fill="none" xmlns="http://www.w3.org/2000/svg">
<circle cx="16" cy="16" r="16" fill="white"/>
<path d="M28.3048 26.2055C29.9473 24.231 31.0896 21.8902 31.6352 19.3813C32.1808 16.8724 32.1136 14.269 31.4392 11.7915C30.7649 9.31402 29.5033 7.03523 27.7611 5.14795C26.019 3.26066 23.8475 1.82039 21.4305 0.948975C19.0134 0.077559 16.4218 -0.199366 13.875 0.141626C11.3282 0.482618 8.90101 1.4315 6.79882 2.90799C4.69663 4.38448 2.98127 6.34516 1.79785 8.62414C0.614425 10.9031 -0.00224457 13.4334 6.13884e-06 16.0009C0.000869812 19.7333 1.31723 23.3461 3.71809 26.2055L3.69522 26.2249C3.77527 26.3209 3.86677 26.4032 3.94911 26.4981C4.05204 26.6158 4.16298 26.7266 4.26934 26.8409C4.58957 27.1883 4.91895 27.5219 5.26434 27.8351C5.36956 27.931 5.4782 28.0202 5.58457 28.1116C5.95054 28.427 6.32681 28.7264 6.7168 29.0052C6.76713 29.0395 6.81287 29.0841 6.86319 29.1195V29.1058C9.5418 30.9892 12.7372 32 16.0126 32C19.288 32 22.4834 30.9892 25.162 29.1058V29.1195C25.2123 29.0841 25.2569 29.0395 25.3084 29.0052C25.6972 28.7252 26.0746 28.427 26.4406 28.1116C26.547 28.0202 26.6556 27.9299 26.7608 27.8351C27.1062 27.5208 27.4356 27.1883 27.7558 26.8409C27.8622 26.7266 27.972 26.6158 28.0761 26.4981C28.1573 26.4032 28.2499 26.3209 28.33 26.2238L28.3048 26.2055ZM16.0114 6.85899C17.0293 6.85899 18.0244 7.16058 18.8707 7.72563C19.717 8.29067 20.3767 9.09379 20.7662 10.0334C21.1557 10.9731 21.2577 12.007 21.0591 13.0045C20.8605 14.002 20.3703 14.9183 19.6506 15.6375C18.9308 16.3566 18.0138 16.8464 17.0155 17.0448C16.0172 17.2432 14.9824 17.1414 14.042 16.7522C13.1015 16.363 12.2978 15.7039 11.7323 14.8582C11.1667 14.0126 10.8649 13.0184 10.8649 12.0013C10.8649 10.6375 11.4071 9.32951 12.3723 8.36514C13.3375 7.40077 14.6465 6.85899 16.0114 6.85899ZM6.87006 26.2055C6.8899 24.7051 7.50016 23.2727 8.56882 22.2184C9.63748 21.1641 11.0786 20.5726 12.5804 20.5718H19.4425C20.9443 20.5726 22.3854 21.1641 23.4541 22.2184C24.5227 23.2727 25.133 24.7051 25.1528 26.2055C22.6446 28.4639 19.3879 29.7138 16.0114 29.7138C12.635 29.7138 9.37831 28.4639 6.87006 26.2055Z" fill="#E9ECEF"/>
</svg>
