<svg width="24" height="25" viewBox="0 0 24 25" fill="none" xmlns="http://www.w3.org/2000/svg">
<path fill-rule="evenodd" clip-rule="evenodd" d="M8.99936 3.40625C9.48317 3.40609 9.95747 3.54071 10.3691 3.79502C10.7807 4.04937 11.1133 4.41337 11.3297 4.84619C11.3297 4.84625 11.3296 4.84614 11.3297 4.84619L12.1585 6.50382C12.2501 6.68728 12.3912 6.84175 12.5656 6.9496C12.7401 7.05744 12.9411 7.11457 13.1462 7.11458C13.1462 7.11458 13.1462 7.11458 13.1462 7.11458H19.417C20.1077 7.11458 20.77 7.38895 21.2584 7.87733C21.7468 8.3657 22.0212 9.02808 22.0212 9.71875V18.9896C22.0212 19.6803 21.7468 20.3426 21.2584 20.831C20.77 21.3194 20.1077 21.5938 19.417 21.5938H4.58366C3.89299 21.5938 3.23061 21.3194 2.74223 20.831C2.25386 20.3426 1.97949 19.6803 1.97949 18.9896V6.01042C1.97949 5.31975 2.25386 4.65737 2.74223 4.16899C3.23061 3.68062 3.89299 3.40625 4.58366 3.40625H8.99936C8.99934 3.40625 8.99938 3.40625 8.99936 3.40625ZM9.58061 5.07109C9.40605 4.96324 9.2049 4.90615 8.99971 4.90625H4.58366C4.29082 4.90625 4.00997 5.02258 3.8029 5.22965C3.59582 5.43672 3.47949 5.71757 3.47949 6.01042V18.9896C3.47949 19.2824 3.59582 19.5633 3.8029 19.7703C4.00997 19.9774 4.29082 20.0938 4.58366 20.0938H19.417C19.7098 20.0938 19.9907 19.9774 20.1978 19.7703C20.4048 19.5633 20.5212 19.2824 20.5212 18.9896V9.71875C20.5212 9.42591 20.4048 9.14506 20.1978 8.93799C19.9907 8.73091 19.7098 8.61458 19.417 8.61458H13.1462C12.6625 8.61457 12.1883 8.47983 11.7769 8.22547C11.3655 7.97114 11.033 7.60727 10.8168 7.17464C10.8168 7.17459 10.8169 7.17469 10.8168 7.17464L9.98802 5.51701C9.8963 5.33347 9.75517 5.17895 9.58061 5.07109Z" fill="#049B8F"/>
<path fill-rule="evenodd" clip-rule="evenodd" d="M12.75 11.7705C12.75 11.3563 12.4142 11.0205 12 11.0205C11.5858 11.0205 11.25 11.3563 11.25 11.7705V13.3721H9.64844C9.23422 13.3721 8.89844 13.7079 8.89844 14.1221C8.89844 14.5363 9.23422 14.8721 9.64844 14.8721H11.25V16.4736C11.25 16.8878 11.5858 17.2236 12 17.2236C12.4142 17.2236 12.75 16.8878 12.75 16.4736V14.8721H14.3516C14.7658 14.8721 15.1016 14.5363 15.1016 14.1221C15.1016 13.7079 14.7658 13.3721 14.3516 13.3721H12.75V11.7705Z" fill="#049B8F"/>
</svg>
