<svg width="21" height="21" viewBox="0 0 21 21" fill="none" xmlns="http://www.w3.org/2000/svg">
<path fill-rule="evenodd" clip-rule="evenodd" d="M8.5265 3.95117C8.16065 3.95117 7.82162 4.1431 7.63335 4.45678L6.85053 5.76107H14.1488L13.366 4.45678C13.1777 4.1431 12.8387 3.95117 12.4728 3.95117H8.5265ZM6.56157 3.81351L5.39267 5.76107H2.81738C2.4722 5.76107 2.19238 6.04089 2.19238 6.38607C2.19238 6.73125 2.4722 7.01107 2.81738 7.01107H4.1502L4.84735 17.4743C4.91297 18.4592 5.73105 19.2246 6.7182 19.2246H14.2812C15.2683 19.2246 16.0864 18.4592 16.1521 17.4743L16.8492 7.01107H18.182C18.5271 7.01107 18.807 6.73125 18.807 6.38607C18.807 6.04089 18.5271 5.76107 18.182 5.76107H15.6067L14.4378 3.81351C14.0236 3.1234 13.2777 2.70117 12.4728 2.70117H8.5265C7.72163 2.70117 6.97577 3.1234 6.56157 3.81351ZM15.5964 7.01107H5.40297L6.09458 17.3912C6.11646 17.7195 6.38915 17.9746 6.7182 17.9746H14.2812C14.6102 17.9746 14.8829 17.7195 14.9048 17.3912L15.5964 7.01107ZM8.97624 9.61523C9.32141 9.61523 9.60124 9.89506 9.60124 10.2402V14.0814C9.60124 14.4266 9.32141 14.7064 8.97624 14.7064C8.63106 14.7064 8.35124 14.4266 8.35124 14.0814V10.2402C8.35124 9.89506 8.63106 9.61523 8.97624 9.61523ZM12.0231 9.61523C12.3683 9.61523 12.6481 9.89506 12.6481 10.2402V14.0814C12.6481 14.4266 12.3683 14.7064 12.0231 14.7064C11.6779 14.7064 11.3981 14.4266 11.3981 14.0814V10.2402C11.3981 9.89506 11.6779 9.61523 12.0231 9.61523Z" fill="#FA4343"/>
</svg>
