<svg width="21" height="21" viewBox="0 0 21 21" fill="none" xmlns="http://www.w3.org/2000/svg">
<path fill-rule="evenodd" clip-rule="evenodd" d="M3.20801 6.7962C3.20801 6.45103 3.48783 6.1712 3.83301 6.1712H17.1663C17.5115 6.1712 17.7913 6.45103 17.7913 6.7962C17.7913 7.14138 17.5115 7.4212 17.1663 7.4212H3.83301C3.48783 7.4212 3.20801 7.14138 3.20801 6.7962ZM3.20801 10.9629C3.20801 10.6177 3.48783 10.3379 3.83301 10.3379H17.1663C17.5115 10.3379 17.7913 10.6177 17.7913 10.9629C17.7913 11.308 17.5115 11.5879 17.1663 11.5879H3.83301C3.48783 11.5879 3.20801 11.308 3.20801 10.9629ZM3.83301 14.5045C3.48783 14.5045 3.20801 14.7844 3.20801 15.1295C3.20801 15.4747 3.48783 15.7545 3.83301 15.7545H12.1663C12.5115 15.7545 12.7913 15.4747 12.7913 15.1295C12.7913 14.7844 12.5115 14.5045 12.1663 14.5045H3.83301Z" fill="#343A40"/>
</svg>
