<svg width="25" height="24" viewBox="0 0 25 24" fill="none" xmlns="http://www.w3.org/2000/svg">
<path fill-rule="evenodd" clip-rule="evenodd" d="M12.875 20.5C17.5694 20.5 21.375 16.6944 21.375 12C21.375 7.30558 17.5694 3.5 12.875 3.5C8.18058 3.5 4.375 7.30558 4.375 12C4.375 16.6944 8.18058 20.5 12.875 20.5ZM12.875 22C18.3978 22 22.875 17.5228 22.875 12C22.875 6.47715 18.3978 2 12.875 2C7.35215 2 2.875 6.47715 2.875 12C2.875 17.5228 7.35215 22 12.875 22ZM16.2022 10.6417C16.4951 10.3488 16.4951 9.87388 16.2022 9.58099C15.9093 9.2881 15.4344 9.2881 15.1415 9.58099L13.625 11.0975L13.625 6.52912C13.625 6.21964 13.2892 5.96875 12.875 5.96875C12.4608 5.96875 12.125 6.21964 12.125 6.52912V11.0975L10.6085 9.58099C10.3156 9.2881 9.84069 9.2881 9.54779 9.58099C9.2549 9.87388 9.2549 10.3488 9.54779 10.6417L11.9911 13.085C12.4793 13.5731 13.2707 13.5731 13.7589 13.085L16.2022 10.6417ZM8.82812 15.375C8.41391 15.375 8.07812 15.7108 8.07812 16.125C8.07812 16.5392 8.41391 16.875 8.82812 16.875H16.9219C17.3361 16.875 17.6719 16.5392 17.6719 16.125C17.6719 15.7108 17.3361 15.375 16.9219 15.375H8.82812Z" fill="#343A40"/>
</svg>
