<svg width="17" height="16" viewBox="0 0 17 16" fill="none" xmlns="http://www.w3.org/2000/svg">
<rect x="0.333374" width="16" height="16" rx="8" fill="#343A40"/>
<path fill-rule="evenodd" clip-rule="evenodd" d="M8.33337 14.6667C12.0153 14.6667 15 11.6819 15 8.00001C15 4.31811 12.0153 1.33334 8.33337 1.33334C4.65147 1.33334 1.6667 4.31811 1.6667 8.00001C1.6667 11.6819 4.65147 14.6667 8.33337 14.6667ZM10.773 7.44726L6.8006 11.4197C6.74588 11.4744 6.67706 11.5133 6.60183 11.5321L4.36108 11.9724L4.80136 9.73118C4.82025 9.65613 4.8591 9.5876 4.91379 9.53284L8.88617 5.56045L10.773 7.44726ZM12.3057 5.56045C12.3057 5.78715 12.2156 6.00456 12.0554 6.16488L11.3774 6.84283L9.4906 4.95602L10.1686 4.27807C10.3289 4.1178 10.5463 4.02776 10.773 4.02776C10.9997 4.02776 11.2171 4.1178 11.3774 4.27807L12.0554 4.95602C12.2156 5.11634 12.3057 5.33376 12.3057 5.56045Z" fill="#1C7ED6"/>
</svg>
