<svg width="24" height="24" viewBox="0 0 24 24" fill="none" xmlns="http://www.w3.org/2000/svg">
<path d="M1.5 3.75C1.5 3.15326 1.73705 2.58097 2.15901 2.15901C2.58097 1.73705 3.15326 1.5 3.75 1.5H8.25C8.84674 1.5 9.41903 1.73705 9.84099 2.15901C10.2629 2.58097 10.5 3.15326 10.5 3.75V8.25C10.5 8.84674 10.2629 9.41903 9.84099 9.84099C9.41903 10.2629 8.84674 10.5 8.25 10.5H3.75C3.15326 10.5 2.58097 10.2629 2.15901 9.84099C1.73705 9.41903 1.5 8.84674 1.5 8.25V3.75ZM3.75 3C3.55109 3 3.36032 3.07902 3.21967 3.21967C3.07902 3.36032 3 3.55109 3 3.75V8.25C3 8.44891 3.07902 8.63968 3.21967 8.78033C3.36032 8.92098 3.55109 9 3.75 9H8.25C8.44891 9 8.63968 8.92098 8.78033 8.78033C8.92098 8.63968 9 8.44891 9 8.25V3.75C9 3.55109 8.92098 3.36032 8.78033 3.21967C8.63968 3.07902 8.44891 3 8.25 3H3.75ZM13.5 3.75C13.5 3.15326 13.7371 2.58097 14.159 2.15901C14.581 1.73705 15.1533 1.5 15.75 1.5H20.25C20.8467 1.5 21.419 1.73705 21.841 2.15901C22.2629 2.58097 22.5 3.15326 22.5 3.75V8.25C22.5 8.84674 22.2629 9.41903 21.841 9.84099C21.419 10.2629 20.8467 10.5 20.25 10.5H15.75C15.1533 10.5 14.581 10.2629 14.159 9.84099C13.7371 9.41903 13.5 8.84674 13.5 8.25V3.75ZM15.75 3C15.5511 3 15.3603 3.07902 15.2197 3.21967C15.079 3.36032 15 3.55109 15 3.75V8.25C15 8.44891 15.079 8.63968 15.2197 8.78033C15.3603 8.92098 15.5511 9 15.75 9H20.25C20.4489 9 20.6397 8.92098 20.7803 8.78033C20.921 8.63968 21 8.44891 21 8.25V3.75C21 3.55109 20.921 3.36032 20.7803 3.21967C20.6397 3.07902 20.4489 3 20.25 3H15.75ZM1.5 15.75C1.5 15.1533 1.73705 14.581 2.15901 14.159C2.58097 13.7371 3.15326 13.5 3.75 13.5H8.25C8.84674 13.5 9.41903 13.7371 9.84099 14.159C10.2629 14.581 10.5 15.1533 10.5 15.75V20.25C10.5 20.8467 10.2629 21.419 9.84099 21.841C9.41903 22.2629 8.84674 22.5 8.25 22.5H3.75C3.15326 22.5 2.58097 22.2629 2.15901 21.841C1.73705 21.419 1.5 20.8467 1.5 20.25V15.75ZM3.75 15C3.55109 15 3.36032 15.079 3.21967 15.2197C3.07902 15.3603 3 15.5511 3 15.75V20.25C3 20.4489 3.07902 20.6397 3.21967 20.7803C3.36032 20.921 3.55109 21 3.75 21H8.25C8.44891 21 8.63968 20.921 8.78033 20.7803C8.92098 20.6397 9 20.4489 9 20.25V15.75C9 15.5511 8.92098 15.3603 8.78033 15.2197C8.63968 15.079 8.44891 15 8.25 15H3.75ZM13.5 15.75C13.5 15.1533 13.7371 14.581 14.159 14.159C14.581 13.7371 15.1533 13.5 15.75 13.5H20.25C20.8467 13.5 21.419 13.7371 21.841 14.159C22.2629 14.581 22.5 15.1533 22.5 15.75V20.25C22.5 20.8467 22.2629 21.419 21.841 21.841C21.419 22.2629 20.8467 22.5 20.25 22.5H15.75C15.1533 22.5 14.581 22.2629 14.159 21.841C13.7371 21.419 13.5 20.8467 13.5 20.25V15.75ZM15.75 15C15.5511 15 15.3603 15.079 15.2197 15.2197C15.079 15.3603 15 15.5511 15 15.75V20.25C15 20.4489 15.079 20.6397 15.2197 20.7803C15.3603 20.921 15.5511 21 15.75 21H20.25C20.4489 21 20.6397 20.921 20.7803 20.7803C20.921 20.6397 21 20.4489 21 20.25V15.75C21 15.5511 20.921 15.3603 20.7803 15.2197C20.6397 15.079 20.4489 15 20.25 15H15.75Z" fill="#6F767D"/>
</svg>
