<svg width="20" height="20" viewBox="0 0 20 20" fill="none" xmlns="http://www.w3.org/2000/svg">
<path fill-rule="evenodd" clip-rule="evenodd" d="M10 0C4.47727 0 0 4.47727 0 10C0 15.5227 4.47727 20 10 20C15.5227 20 20 15.5227 20 10C20 4.47727 15.5227 0 10 0ZM9.54545 4.54545C9.30435 4.54545 9.07312 4.64123 8.90263 4.81172C8.73214 4.98221 8.63636 5.21344 8.63636 5.45455C8.63636 5.69565 8.73214 5.92688 8.90263 6.09737C9.07312 6.26786 9.30435 6.36364 9.54545 6.36364H10C10.2411 6.36364 10.4723 6.26786 10.6428 6.09737C10.8133 5.92688 10.9091 5.69565 10.9091 5.45455C10.9091 5.21344 10.8133 4.98221 10.6428 4.81172C10.4723 4.64123 10.2411 4.54545 10 4.54545H9.54545ZM8.18182 8.18182C7.94071 8.18182 7.70948 8.2776 7.53899 8.44808C7.36851 8.61857 7.27273 8.8498 7.27273 9.09091C7.27273 9.33202 7.36851 9.56325 7.53899 9.73373C7.70948 9.90422 7.94071 10 8.18182 10H9.09091V12.7273H8.18182C7.94071 12.7273 7.70948 12.8231 7.53899 12.9935C7.36851 13.164 7.27273 13.3953 7.27273 13.6364C7.27273 13.8775 7.36851 14.1087 7.53899 14.2792C7.70948 14.4497 7.94071 14.5455 8.18182 14.5455H11.8182C12.0593 14.5455 12.2905 14.4497 12.461 14.2792C12.6315 14.1087 12.7273 13.8775 12.7273 13.6364C12.7273 13.3953 12.6315 13.164 12.461 12.9935C12.2905 12.8231 12.0593 12.7273 11.8182 12.7273H10.9091V9.09091C10.9091 8.8498 10.8133 8.61857 10.6428 8.44808C10.4723 8.2776 10.2411 8.18182 10 8.18182H8.18182Z" fill="#1C7ED6"/>
</svg>
