<svg width="25" height="24" viewBox="0 0 25 24" fill="none" xmlns="http://www.w3.org/2000/svg">
<path fill-rule="evenodd" clip-rule="evenodd" d="M10.9941 3.29502C10.5825 3.04071 10.1082 2.90609 9.62436 2.90625H5.20866C4.51799 2.90625 3.85561 3.18062 3.36723 3.66899C2.87886 4.15737 2.60449 4.81975 2.60449 5.51042V18.4896C2.60449 19.1803 2.87886 19.8426 3.36723 20.331C3.85561 20.8194 4.51799 21.0938 5.20866 21.0938H20.042C20.7327 21.0938 21.395 20.8194 21.8834 20.331C22.3718 19.8426 22.6462 19.1803 22.6462 18.4896V9.21875C22.6462 8.52808 22.3718 7.8657 21.8834 7.37733C21.395 6.88895 20.7327 6.61458 20.042 6.61458H13.7712C13.5661 6.61457 13.3651 6.55744 13.1906 6.4496C13.0162 6.34175 12.8751 6.18728 12.7835 6.00382L11.9547 4.34619C11.7383 3.91337 11.4057 3.54937 10.9941 3.29502ZM9.62471 4.40625C9.8299 4.40615 10.0311 4.46324 10.2056 4.57109C10.3802 4.67895 10.5213 4.83347 10.613 5.01701L11.4418 6.67464C11.658 7.10727 11.9905 7.47114 12.4019 7.72547C12.8133 7.97983 13.2875 8.11457 13.7712 8.11458H20.042C20.3348 8.11458 20.6157 8.23091 20.8228 8.43799C21.0298 8.64506 21.1462 8.92591 21.1462 9.21875V18.4896C21.1462 18.7824 21.0298 19.0633 20.8228 19.2703C20.6157 19.4774 20.3348 19.5938 20.042 19.5938H5.20866C4.91582 19.5938 4.63497 19.4774 4.4279 19.2703C4.22082 19.0633 4.10449 18.7824 4.10449 18.4896V5.51042C4.10449 5.21757 4.22082 4.93672 4.4279 4.72965C4.63497 4.52258 4.91582 4.40625 5.20866 4.40625H9.62471ZM13.6281 10.5322C13.921 10.2393 14.3959 10.2393 14.6888 10.5322L17.1321 12.9755C17.6203 13.4636 17.6203 14.2551 17.1321 14.7433L14.6888 17.1866C14.3959 17.4795 13.921 17.4795 13.6281 17.1866C13.3352 16.8937 13.3352 16.4188 13.6281 16.1259L15.1447 14.6094L8.5022 14.6094C8.08798 14.6094 7.7522 14.2736 7.7522 13.8594C7.7522 13.4452 8.08798 13.1094 8.5022 13.1094L15.1447 13.1094L13.6281 11.5928C13.3352 11.2999 13.3352 10.8251 13.6281 10.5322Z" fill="#343A40"/>
</svg>
