<svg width="12" height="12" viewBox="0 0 12 12" fill="none" xmlns="http://www.w3.org/2000/svg">
<path d="M6 11.25C4.60761 11.25 3.27226 10.6969 2.28769 9.71231C1.30312 8.72774 0.75 7.39239 0.75 6C0.75 4.60761 1.30312 3.27226 2.28769 2.28769C3.27226 1.30312 4.60761 0.75 6 0.75C7.39239 0.75 8.72774 1.30312 9.71231 2.28769C10.6969 3.27226 11.25 4.60761 11.25 6C11.25 7.39239 10.6969 8.72774 9.71231 9.71231C8.72774 10.6969 7.39239 11.25 6 11.25ZM6 12C7.5913 12 9.11742 11.3679 10.2426 10.2426C11.3679 9.11742 12 7.5913 12 6C12 4.4087 11.3679 2.88258 10.2426 1.75736C9.11742 0.632141 7.5913 0 6 0C4.4087 0 2.88258 0.632141 1.75736 1.75736C0.632141 2.88258 0 4.4087 0 6C0 7.5913 0.632141 9.11742 1.75736 10.2426C2.88258 11.3679 4.4087 12 6 12Z" fill="#FA5252"/>
<path d="M5.25146 8.25C5.25146 8.1515 5.27086 8.05398 5.30856 7.96298C5.34625 7.87199 5.40149 7.78931 5.47113 7.71967C5.54078 7.65002 5.62346 7.59478 5.71445 7.55709C5.80545 7.5194 5.90297 7.5 6.00146 7.5C6.09996 7.5 6.19748 7.5194 6.28848 7.55709C6.37947 7.59478 6.46215 7.65002 6.53179 7.71967C6.60144 7.78931 6.65668 7.87199 6.69437 7.96298C6.73207 8.05398 6.75146 8.1515 6.75146 8.25C6.75146 8.44891 6.67245 8.63967 6.53179 8.78033C6.39114 8.92098 6.20038 9 6.00146 9C5.80255 9 5.61179 8.92098 5.47113 8.78033C5.33048 8.63967 5.25146 8.44891 5.25146 8.25ZM5.32496 3.74625C5.31498 3.65163 5.32499 3.55597 5.35437 3.46547C5.38374 3.37497 5.43181 3.29166 5.49545 3.22094C5.5591 3.15022 5.63691 3.09367 5.72382 3.05496C5.81074 3.01625 5.90482 2.99625 5.99996 2.99625C6.09511 2.99625 6.18919 3.01625 6.27611 3.05496C6.36302 3.09367 6.44083 3.15022 6.50448 3.22094C6.56812 3.29166 6.61619 3.37497 6.64556 3.46547C6.67494 3.55597 6.68495 3.65163 6.67496 3.74625L6.41247 6.3765C6.40365 6.47983 6.35637 6.57608 6.27998 6.64622C6.2036 6.71637 6.10367 6.75529 5.99996 6.75529C5.89626 6.75529 5.79633 6.71637 5.71995 6.64622C5.64356 6.57608 5.59628 6.47983 5.58746 6.3765L5.32496 3.74625Z" fill="#FA5252"/>
</svg>
