<svg width="24" height="24" viewBox="0 0 24 24" fill="none" xmlns="http://www.w3.org/2000/svg">
<path fill-rule="evenodd" clip-rule="evenodd" d="M16.2332 7.44097C16.2702 7.52728 16.2881 7.62059 16.2855 7.71446V10.5716H14.857V9.14301H10.5713C10.1928 9.14188 9.83009 8.99101 9.56243 8.72335C9.29477 8.45569 9.1439 8.09299 9.14277 7.71446V3.4288H3.42855V20.5714H14.857V22H3.42855C3.04968 22 2.68632 21.8495 2.41841 21.5816C2.15051 21.3137 2 20.9503 2 20.5714V3.4288C2.00113 3.05027 2.152 2.68757 2.41966 2.41991C2.68732 2.15224 3.05003 2.00137 3.42855 2.00024H10.5713C10.6652 1.99767 10.7585 2.0155 10.8448 2.0525C10.9312 2.08949 11.0084 2.14477 11.0713 2.21453L16.0713 7.21447C16.141 7.27738 16.1962 7.35465 16.2332 7.44097ZM10.5713 3.71451V7.71446H14.5713L10.5713 3.71451ZM21.9998 12.0001V13.4287H19.1426V14.8572H21.2855V16.2858H19.1426V19.1429H17.7141V12.0001H21.9998ZM11.2856 19.1429H14.1427C14.7108 19.1423 15.2556 18.9164 15.6573 18.5146C16.059 18.1129 16.285 17.5682 16.2855 17V14.1429C16.285 13.5748 16.059 13.0301 15.6573 12.6284C15.2556 12.2266 14.7108 12.0007 14.1427 12.0001H11.2856V19.1429ZM14.1427 17.7143H12.7142V13.4287H14.1427C14.3321 13.4289 14.5137 13.5042 14.6476 13.6381C14.7815 13.772 14.8568 13.9536 14.857 14.1429V17C14.8568 17.1894 14.7815 17.371 14.6476 17.5049C14.5137 17.6388 14.3321 17.7141 14.1427 17.7143ZM4.85711 12.0001H8.42849C8.80725 12.0005 9.17039 12.1511 9.43822 12.4189C9.70604 12.6868 9.85667 13.0499 9.85705 13.4287V15.5715C9.85648 15.9502 9.70579 16.3132 9.43801 16.581C9.17022 16.8488 8.8072 16.9995 8.42849 17H6.28566V19.1429H4.85711V12.0001ZM6.28566 13.4287V15.5715H8.42921L8.42849 13.4287H6.28566Z" fill="#343A40"/>
</svg>
