<svg width="24" height="24" viewBox="0 0 24 24" fill="none" xmlns="http://www.w3.org/2000/svg">
<path fill-rule="evenodd" clip-rule="evenodd" d="M18.9289 7.21429L13.9289 2.21429C13.786 2.07143 13.6431 2 13.4289 2H6.28599C5.50028 2 4.85742 2.64286 4.85742 3.42857V20.5714C4.85742 21.3571 5.50028 22 6.28599 22H17.7146C18.5003 22 19.1431 21.3571 19.1431 20.5714V7.71429C19.1431 7.5 19.0717 7.35714 18.9289 7.21429ZM13.4289 3.71429L17.4289 7.71429H13.4289V3.71429ZM9.47039 20.5714H6.28599V3.42857H12.0003V7.71429C12.0003 8.5 12.6431 9.14286 13.4289 9.14286H17.7146V15.9596C16.6512 15.1121 15.1023 15.1648 14.0985 16.1285L9.47039 20.5714ZM11.6364 20.5714H17.7146V18.0562L16.8868 17.2284C16.4057 16.7473 15.6281 16.7394 15.1373 17.2106L11.6364 20.5714ZM10.2502 13.9375C10.9406 13.9375 11.5002 13.3779 11.5002 12.6875C11.5002 11.9971 10.9406 11.4375 10.2502 11.4375C9.55989 11.4375 9.00024 11.9971 9.00024 12.6875C9.00024 13.3779 9.55989 13.9375 10.2502 13.9375ZM10.2502 15.4375C11.769 15.4375 13.0002 14.2063 13.0002 12.6875C13.0002 11.1687 11.769 9.9375 10.2502 9.9375C8.73146 9.9375 7.50024 11.1687 7.50024 12.6875C7.50024 14.2063 8.73146 15.4375 10.2502 15.4375Z" fill="#343A40"/>
</svg>
