<svg width="16" height="16" viewBox="0 0 16 16" fill="none" xmlns="http://www.w3.org/2000/svg">
<path fill-rule="evenodd" clip-rule="evenodd" d="M7.25101 1.79721C7.17912 1.65349 7.04254 1.55308 6.88392 1.52734C6.72527 1.50159 6.56392 1.55368 6.45027 1.66733L1.66696 6.45064C1.55331 6.56428 1.50123 6.72564 1.52697 6.88428C1.55271 7.0429 1.65312 7.17949 1.79684 7.25137L1.79759 7.25175L1.801 7.25346L1.81571 7.26091C1.82894 7.26764 1.8489 7.27783 1.87488 7.29127C1.92687 7.31816 2.00288 7.35798 2.09737 7.40885C2.28657 7.51073 2.54867 7.65634 2.83951 7.83085C3.43119 8.18586 4.10427 8.63839 4.53695 9.07107C4.71689 9.25101 4.92696 9.57962 5.14584 10.0174C5.3593 10.4443 5.56167 10.9348 5.73775 11.4043C5.91333 11.8725 6.06004 12.3126 6.16294 12.636C6.21431 12.7975 6.2546 12.9293 6.28194 13.0204C6.2956 13.066 6.30601 13.1013 6.31295 13.125L6.32071 13.1517L6.32257 13.1581L6.32299 13.1596C6.37166 13.3299 6.50691 13.4621 6.6784 13.5065C6.8499 13.5509 7.03211 13.5013 7.15738 13.376L9.91298 10.6204L13.6252 14.3327C13.8205 14.528 14.1371 14.528 14.3323 14.3327C14.5276 14.1374 14.5276 13.8209 14.3323 13.6256L10.6201 9.91334L13.3757 7.15774C13.501 7.03247 13.5506 6.85027 13.5061 6.67877C13.4617 6.50727 13.3298 6.3721 13.1595 6.32343L13.1578 6.32294L13.1513 6.32107L13.1246 6.31331C13.1009 6.30638 13.0656 6.29597 13.0201 6.2823C12.929 6.25497 12.7971 6.21468 12.6356 6.1633C12.3122 6.06041 11.8722 5.9137 11.4039 5.73811C10.9344 5.56204 10.4439 5.35967 10.017 5.1462C9.57926 4.92733 9.25064 4.71725 9.0707 4.53731C8.63802 4.10463 8.18549 3.43156 7.83049 2.83988C7.65598 2.54903 7.51036 2.28693 7.40849 2.09773C7.35761 2.00325 7.3178 1.92723 7.29091 1.87525C7.27747 1.84927 7.26727 1.82931 7.26054 1.81608L7.2531 1.80136L7.25138 1.79796L7.25101 1.79721Z" fill="#343A40"/>
</svg>
