<svg width="20" height="20" viewBox="0 0 20 20" fill="none" xmlns="http://www.w3.org/2000/svg">
<path fill-rule="evenodd" clip-rule="evenodd" d="M8.877 0.695811C8.76917 0.480233 8.56429 0.329616 8.32636 0.291005C8.08839 0.252387 7.84637 0.330519 7.67589 0.50099L0.500929 7.67596C0.330458 7.84643 0.252326 8.08845 0.290943 8.32642C0.329555 8.56436 0.480172 8.76923 0.69575 8.87706L0.696875 8.87762L0.701984 8.88019L0.724053 8.89137C0.743903 8.90145 0.773839 8.91675 0.812814 8.93691C0.890787 8.97724 1.00481 9.03696 1.14654 9.11328C1.43034 9.26609 1.82349 9.48452 2.25975 9.74628C3.14727 10.2788 4.15689 10.9576 4.80591 11.6066C5.07582 11.8765 5.39093 12.3694 5.71924 13.0261C6.03944 13.6664 6.34299 14.4022 6.60711 15.1065C6.87049 15.8088 7.09055 16.4689 7.24489 16.954C7.32196 17.1962 7.38239 17.394 7.42339 17.5306C7.44389 17.599 7.45951 17.6519 7.46991 17.6875L7.48155 17.7275L7.48434 17.7372L7.48497 17.7394C7.55798 17.9949 7.76085 18.1931 8.01809 18.2598C8.27534 18.3264 8.54865 18.252 8.73656 18.0641L12.87 13.9307L18.4383 19.4991C18.7312 19.792 19.2061 19.792 19.499 19.4991C19.7919 19.2062 19.7919 18.7313 19.499 18.4384L13.9306 12.87L18.064 8.73662C18.2519 8.54871 18.3264 8.2754 18.2597 8.01816C18.193 7.76091 17.9952 7.55815 17.7397 7.48514L17.7372 7.48441L17.7275 7.48161L17.6874 7.46997C17.6519 7.45957 17.5989 7.44395 17.5306 7.42345C17.3939 7.38245 17.1961 7.32202 16.9539 7.24495C16.4688 7.09061 15.8088 6.87055 15.1064 6.60717C14.4021 6.34306 13.6664 6.0395 13.026 5.7193C12.3694 5.39099 11.8764 5.07588 11.6065 4.80597C10.9575 4.15695 10.2787 3.14733 9.74622 2.25982C9.48446 1.82355 9.26603 1.4304 9.11322 1.1466C9.0369 1.00487 8.97718 0.890848 8.93685 0.812875C8.91669 0.7739 8.90139 0.743964 8.8913 0.724114L8.88013 0.702045L8.87756 0.696936L8.877 0.695811ZM16.1257 8.55363C15.68 8.4073 15.1439 8.22323 14.5797 8.01166C13.849 7.73765 13.0601 7.4134 12.3552 7.06094C11.6665 6.7166 10.9935 6.31422 10.5459 5.86663C9.75991 5.08065 9.00371 3.93778 8.45998 3.03156C8.29621 2.75862 8.14872 2.50203 8.0222 2.276L2.27594 8.02226C2.50197 8.14878 2.75856 8.29627 3.0315 8.46004C3.93772 9.00377 5.08059 9.75997 5.86657 10.5459C6.31416 10.9935 6.71654 11.6665 7.06088 12.3552C7.41334 13.0601 7.73759 13.8491 8.0116 14.5798C8.22317 15.144 8.40724 15.68 8.55357 16.1257L16.1257 8.55363Z" fill="#F8F9FA"/>
</svg>
