<svg width="21" height="21" viewBox="0 0 21 21" fill="none" xmlns="http://www.w3.org/2000/svg">
<path fill-rule="evenodd" clip-rule="evenodd" d="M13.251 6.07981L14.787 4.54364C15.0713 4.2738 15.4496 4.1252 15.8418 4.12948C16.236 4.13379 16.6129 4.29229 16.8917 4.57103C17.1705 4.84977 17.3291 5.2266 17.3335 5.62083C17.3379 6.01295 17.1894 6.39127 16.9197 6.67568L15.3832 8.21205L13.251 6.07981ZM12.3671 6.96373L4.5948 14.7367L4.15298 14.2949L4.59476 14.7367C4.44933 14.8821 4.3502 15.0673 4.30987 15.269L4.30986 15.269L3.83873 17.6247L6.19357 17.1536L6.19358 17.1536C6.39525 17.1132 6.58046 17.0141 6.72587 16.8687L6.72591 16.8686L14.4993 9.09589L12.3671 6.96373ZM3.71091 13.8528L3.71088 13.8528C3.39095 14.1727 3.17288 14.5802 3.08414 15.0238L3.08414 15.0238L2.42914 18.2989C2.38816 18.5038 2.4523 18.7156 2.60007 18.8634C2.74784 19.0111 2.95969 19.0753 3.1646 19.0343L6.43875 18.3793L6.43877 18.3793C6.88243 18.2905 7.28988 18.0725 7.6098 17.7525L17.8089 7.55422L17.8187 7.54425C18.317 7.02321 18.5915 6.32776 18.5834 5.60682C18.5754 4.88588 18.2853 4.19676 17.7755 3.68702C17.2656 3.17728 16.5764 2.88744 15.8554 2.87956C15.1345 2.87168 14.4391 3.14639 13.9182 3.64487L13.9084 3.6545L3.71091 13.8528Z" fill="#343A40"/>
</svg>
