<svg width="24" height="24" viewBox="0 0 24 24" fill="none" xmlns="http://www.w3.org/2000/svg">
<path fill-rule="evenodd" clip-rule="evenodd" d="M7 3.75C5.20507 3.75 3.75 5.20507 3.75 7V17C3.75 18.7949 5.20507 20.25 7 20.25H17C18.7949 20.25 20.25 18.7949 20.25 17V7C20.25 5.20507 18.7949 3.75 17 3.75H7ZM2.25 7C2.25 4.37665 4.37665 2.25 7 2.25H17C19.6234 2.25 21.75 4.37665 21.75 7V17C21.75 19.6234 19.6234 21.75 17 21.75H7C4.37665 21.75 2.25 19.6234 2.25 17V7Z" fill="#6F767D"/>
<path fill-rule="evenodd" clip-rule="evenodd" d="M15.513 9.45285C15.8151 9.73615 15.8305 10.2108 15.5472 10.513L11.7972 14.513C11.5192 14.8095 11.0555 14.8306 10.7517 14.5606L8.50174 12.5606C8.19215 12.2854 8.16426 11.8113 8.43945 11.5017C8.71464 11.1921 9.18869 11.1643 9.49828 11.4394L11.2024 12.9542L14.4529 9.48705C14.7362 9.18486 15.2108 9.16955 15.513 9.45285Z" fill="#6F767D"/>
</svg>
