<svg width="21" height="20" viewBox="0 0 21 20" fill="none" xmlns="http://www.w3.org/2000/svg">
<path fill-rule="evenodd" clip-rule="evenodd" d="M10.0156 2.96875C8.24659 2.96875 6.8125 4.40284 6.8125 6.17188C6.8125 7.94091 8.24659 9.375 10.0156 9.375C11.7847 9.375 13.2188 7.94091 13.2188 6.17188C13.2188 4.40284 11.7847 2.96875 10.0156 2.96875ZM5.5625 6.17188C5.5625 3.71248 7.55623 1.71875 10.0156 1.71875C12.475 1.71875 14.4688 3.71248 14.4688 6.17188C14.4688 8.63127 12.475 10.625 10.0156 10.625C7.55623 10.625 5.5625 8.63127 5.5625 6.17188Z" fill="#343A40"/>
<path fill-rule="evenodd" clip-rule="evenodd" d="M15.3748 10.1406C15.72 10.1406 15.9998 10.4204 15.9998 10.7656V12.4375H17.6717C18.0169 12.4375 18.2967 12.7173 18.2967 13.0625C18.2967 13.4077 18.0169 13.6875 17.6717 13.6875H15.9998V15.3594C15.9998 15.7046 15.72 15.9844 15.3748 15.9844C15.0296 15.9844 14.7498 15.7046 14.7498 15.3594V13.6875H13.0779C12.7327 13.6875 12.4529 13.4077 12.4529 13.0625C12.4529 12.7173 12.7327 12.4375 13.0779 12.4375H14.7498V10.7656C14.7498 10.4204 15.0296 10.1406 15.3748 10.1406ZM5.91833 12.1562C5.51071 12.1561 5.11708 12.3049 4.81145 12.5746C4.50584 12.8443 4.30928 13.2163 4.25872 13.6207C4.25872 13.6208 4.25873 13.6207 4.25872 13.6207L3.96013 16.0125C3.94419 16.1401 3.95555 16.2696 3.99347 16.3924C4.03139 16.5152 4.09499 16.6285 4.18006 16.7248C4.26512 16.8212 4.3697 16.8983 4.48685 16.9511C4.60401 17.004 4.73106 17.0313 4.85957 17.0313L13.8436 17.0312C14.1887 17.0312 14.4686 17.3111 14.4686 17.6562C14.4686 18.0014 14.1887 18.2812 13.8436 18.2812H4.85984C4.8598 18.2812 4.85989 18.2812 4.85984 18.2812C4.55412 18.2813 4.25173 18.2163 3.97303 18.0907C3.69428 17.965 3.44545 17.7814 3.24306 17.5522C3.04067 17.323 2.88934 17.0534 2.79912 16.7612C2.70891 16.4691 2.68185 16.1611 2.71976 15.8577C2.71976 15.8577 2.71975 15.8577 2.71976 15.8577L3.01835 13.4659C3.10669 12.759 3.45023 12.1087 3.98436 11.6373C4.51844 11.166 5.20628 10.906 5.91857 10.9062C5.9186 10.9062 5.91853 10.9062 5.91857 10.9062H6.1873C6.53248 10.9062 6.8123 11.1861 6.8123 11.5312C6.8123 11.8764 6.53248 12.1562 6.1873 12.1562H5.91833Z" fill="#343A40"/>
</svg>
