<svg width="24" height="24" viewBox="0 0 24 24" fill="none" xmlns="http://www.w3.org/2000/svg">
<path fill-rule="evenodd" clip-rule="evenodd" d="M16.1679 6.55859C16.1679 8.73257 14.4055 10.4949 12.2315 10.4949C10.0576 10.4949 8.29521 8.73257 8.29521 6.55859C8.29521 4.38462 10.0576 2.62226 12.2315 2.62226C14.4055 2.62226 16.1679 4.38462 16.1679 6.55859ZM18.0203 6.55859C18.0203 9.75562 15.4286 12.3473 12.2315 12.3473C9.03452 12.3473 6.44282 9.75562 6.44282 6.55859C6.44282 3.36157 9.03452 0.769867 12.2315 0.769867C15.4286 0.769867 18.0203 3.36157 18.0203 6.55859ZM0.00393592 22.3051C-0.0453001 22.8142 0.374113 23.2301 0.885637 23.2301C1.39716 23.2301 1.80594 22.8135 1.86719 22.3056C2.32356 18.5215 5.54579 15.589 9.45295 15.589H14.547C18.4542 15.589 21.6764 18.5215 22.1328 22.3056C22.194 22.8135 22.6028 23.2301 23.1144 23.2301C23.6259 23.2301 24.0453 22.8142 23.9961 22.3051C23.531 17.496 19.4781 13.7366 14.547 13.7366H9.45295C4.52194 13.7366 0.46898 17.496 0.00393592 22.3051Z" fill="#6F767D"/>
</svg>
