<svg width="25" height="24" viewBox="0 0 25 24" fill="none" xmlns="http://www.w3.org/2000/svg">
<path fill-rule="evenodd" clip-rule="evenodd" d="M21 12C21 16.6944 17.1944 20.5 12.5 20.5C7.80558 20.5 4 16.6944 4 12C4 7.30558 7.80558 3.5 12.5 3.5C17.1944 3.5 21 7.30558 21 12ZM22.5 12C22.5 17.5228 18.0228 22 12.5 22C6.97715 22 2.5 17.5228 2.5 12C2.5 6.47715 6.97715 2 12.5 2C18.0228 2 22.5 6.47715 22.5 12ZM12.5 9.98438C13.6046 9.98438 14.5 9.08894 14.5 7.98438C14.5 6.87981 13.6046 5.98438 12.5 5.98438C11.3954 5.98438 10.5 6.87981 10.5 7.98438C10.5 9.08894 11.3954 9.98438 12.5 9.98438ZM16.5 16C17.6046 16 18.5 15.1046 18.5 14C18.5 12.8954 17.6046 12 16.5 12C15.3954 12 14.5 12.8954 14.5 14C14.5 15.1046 15.3954 16 16.5 16ZM10.5 14C10.5 15.1046 9.60457 16 8.5 16C7.39543 16 6.5 15.1046 6.5 14C6.5 12.8954 7.39543 12 8.5 12C9.60457 12 10.5 12.8954 10.5 14Z" fill="#049B8F"/>
</svg>
