<svg width="18" height="20" viewBox="0 0 18 20" fill="none" xmlns="http://www.w3.org/2000/svg">
<path fill-rule="evenodd" clip-rule="evenodd" d="M2.1039 17.931H7.62107V19.3103H2.1039C1.73843 19.3092 1.38823 19.1636 1.1298 18.9051C0.871369 18.6467 0.725701 18.2965 0.724609 17.931V1.37953C0.725701 1.01405 0.871369 0.663857 1.1298 0.405426C1.38823 0.146995 1.73843 0.00132603 2.1039 0.000234508H9.00037C9.09101 -0.00224537 9.18111 0.0149679 9.26446 0.050687C9.3478 0.0864061 9.4224 0.139781 9.48312 0.207128L14.3106 5.03465C14.378 5.0954 14.4313 5.17001 14.467 5.25335C14.5027 5.33668 14.52 5.42677 14.5175 5.51741V8.96564H13.1382V6.8967H9.00037C8.63489 6.89561 8.2847 6.74994 8.02627 6.49151C7.76783 6.23308 7.62217 5.88288 7.62107 5.51741V1.37953H2.1039V17.931ZM12.8624 5.51741L9.00037 1.65539V5.51741H12.8624ZM16.1554 19.8483C16.2777 19.9464 16.4297 19.9999 16.5865 20C16.7694 20 16.9448 19.9273 17.0741 19.798C17.2035 19.6687 17.2761 19.4933 17.2761 19.3104V10.345C17.2759 10.2152 17.2391 10.0881 17.17 9.9783C17.1008 9.8685 17.002 9.78046 16.8851 9.72427C16.7681 9.66809 16.6376 9.64605 16.5087 9.66069C16.3797 9.67533 16.2575 9.72605 16.1561 9.80703L12.8969 12.4139H10.3797C10.1968 12.4139 10.0213 12.4865 9.892 12.6159C9.76267 12.7452 9.69001 12.9206 9.69001 13.1035V16.5518C9.69001 16.7347 9.76267 16.9101 9.892 17.0394C10.0213 17.1688 10.1968 17.2414 10.3797 17.2414H12.8969L16.1554 19.8483ZM13.1382 15.8621H11.0693V13.7932H13.1382C13.2948 13.7929 13.4465 13.7394 13.5686 13.6415L15.8968 11.7794V17.8759L13.5693 16.0138C13.447 15.9158 13.295 15.8622 13.1382 15.8621Z" fill="#343A40"/>
</svg>
