<svg width="20" height="28" viewBox="0 0 20 28" fill="none" xmlns="http://www.w3.org/2000/svg">
<path fill-rule="evenodd" clip-rule="evenodd" d="M12.5718 0.952401L19.2385 7.61907C19.4289 7.80955 19.5242 8.00002 19.5242 8.28574V25.4286C19.5242 26.4762 18.667 27.3334 17.6194 27.3334H2.38132C1.33371 27.3334 0.476562 26.4762 0.476562 25.4286V2.57145C0.476562 1.52383 1.33371 0.666687 2.38132 0.666687H11.9051C12.1908 0.666687 12.3813 0.761925 12.5718 0.952401ZM17.2385 8.28574L11.9051 2.9524V8.28574H17.2385ZM2.38132 25.4286H17.6194V10.1905H11.9051C10.8575 10.1905 10.0004 9.33335 10.0004 8.28574V2.57145H2.38132V25.4286ZM15.7147 21.6191V19.7143H4.28609V21.6191H15.7147ZM15.7147 15.9048V14H4.28609V15.9048H15.7147Z" fill="#343A40"/>
</svg>
