<svg width="18" height="19" viewBox="0 0 18 19" fill="none" xmlns="http://www.w3.org/2000/svg">
<path d="M10.5 18.1813H7.5C7.10218 18.1813 6.72064 18.0232 6.43934 17.7419C6.15804 17.4606 6 17.0791 6 16.6813V10.9888L0.4425 5.43127C0.160809 5.15126 0.00167459 4.77096 0 4.37377V1.68127C0 1.28345 0.158035 0.901919 0.43934 0.620614C0.720644 0.33931 1.10218 0.181274 1.5 0.181274H16.5C16.8978 0.181274 17.2794 0.33931 17.5607 0.620614C17.842 0.901919 18 1.28345 18 1.68127V4.37377C17.9983 4.77096 17.8392 5.15126 17.5575 5.43127L12 10.9888V16.6813C12 17.0791 11.842 17.4606 11.5607 17.7419C11.2794 18.0232 10.8978 18.1813 10.5 18.1813ZM1.5 1.68127V4.37377L7.5 10.3738V16.6813H10.5V10.3738L16.5 4.37377V1.68127H1.5Z" fill="#6F767D"/>
</svg>
