<svg width="24" height="24" viewBox="0 0 24 24" fill="none" xmlns="http://www.w3.org/2000/svg">
<path fill-rule="evenodd" clip-rule="evenodd" d="M8.99936 2.90625C9.48317 2.90609 9.95747 3.04071 10.3691 3.29502C10.7807 3.54937 11.1133 3.91337 11.3297 4.34619C11.3297 4.34625 11.3296 4.34614 11.3297 4.34619L12.1585 6.00382C12.2501 6.18728 12.3912 6.34175 12.5656 6.4496C12.7401 6.55744 12.9411 6.61457 13.1462 6.61458C13.1462 6.61458 13.1462 6.61458 13.1462 6.61458H19.417C20.1077 6.61458 20.77 6.88895 21.2584 7.37733C21.7468 7.8657 22.0212 8.52808 22.0212 9.21875V18.4896C22.0212 19.1803 21.7468 19.8426 21.2584 20.331C20.77 20.8194 20.1077 21.0937 19.417 21.0937H4.58366C3.89299 21.0937 3.23061 20.8194 2.74223 20.331C2.25386 19.8426 1.97949 19.1803 1.97949 18.4896V5.51042C1.97949 4.81975 2.25386 4.15737 2.74223 3.66899C3.23061 3.18062 3.89299 2.90625 4.58366 2.90625H8.99936C8.99934 2.90625 8.99938 2.90625 8.99936 2.90625ZM9.58061 4.57109C9.40605 4.46324 9.2049 4.40615 8.99971 4.40625H4.58366C4.29082 4.40625 4.00997 4.52258 3.8029 4.72965C3.59582 4.93672 3.47949 5.21757 3.47949 5.51042V18.4896C3.47949 18.7824 3.59582 19.0633 3.8029 19.2703C4.00997 19.4774 4.29082 19.5937 4.58366 19.5937H19.417C19.7098 19.5937 19.9907 19.4774 20.1978 19.2703C20.4048 19.0633 20.5212 18.7824 20.5212 18.4896V9.21875C20.5212 8.92591 20.4048 8.64506 20.1978 8.43799C19.9907 8.23091 19.7098 8.11458 19.417 8.11458H13.1462C12.6625 8.11457 12.1883 7.97983 11.7769 7.72547C11.3655 7.47114 11.033 7.10727 10.8168 6.67464C10.8168 6.67459 10.8169 6.67469 10.8168 6.67464L9.98802 5.01701C9.8963 4.83347 9.75517 4.67895 9.58061 4.57109Z" fill="#343A40"/>
</svg>
