<svg width="18" height="14" viewBox="0 0 18 14" fill="none" xmlns="http://www.w3.org/2000/svg">
<path fill-rule="evenodd" clip-rule="evenodd" d="M0.75 13.1813C0.75 12.9824 0.829018 12.7916 0.96967 12.6509C1.11032 12.5103 1.30109 12.4313 1.5 12.4313H16.5C16.6989 12.4313 16.8897 12.5103 17.0303 12.6509C17.171 12.7916 17.25 12.9824 17.25 13.1813C17.25 13.3802 17.171 13.571 17.0303 13.7116C16.8897 13.8523 16.6989 13.9313 16.5 13.9313H1.5C1.30109 13.9313 1.11032 13.8523 0.96967 13.7116C0.829018 13.571 0.75 13.3802 0.75 13.1813ZM0.75 7.18127C0.75 6.98236 0.829018 6.7916 0.96967 6.65094C1.11032 6.51029 1.30109 6.43127 1.5 6.43127H16.5C16.6989 6.43127 16.8897 6.51029 17.0303 6.65094C17.171 6.7916 17.25 6.98236 17.25 7.18127C17.25 7.38019 17.171 7.57095 17.0303 7.71161C16.8897 7.85226 16.6989 7.93127 16.5 7.93127H1.5C1.30109 7.93127 1.11032 7.85226 0.96967 7.71161C0.829018 7.57095 0.75 7.38019 0.75 7.18127ZM0.75 1.18127C0.75 0.982362 0.829018 0.791597 0.96967 0.650944C1.11032 0.510292 1.30109 0.431274 1.5 0.431274H16.5C16.6989 0.431274 16.8897 0.510292 17.0303 0.650944C17.171 0.791597 17.25 0.982362 17.25 1.18127C17.25 1.38019 17.171 1.57095 17.0303 1.7116C16.8897 1.85226 16.6989 1.93127 16.5 1.93127H1.5C1.30109 1.93127 1.11032 1.85226 0.96967 1.7116C0.829018 1.57095 0.75 1.38019 0.75 1.18127Z" fill="#049B8F"/>
</svg>
