<svg width="22" height="22" viewBox="0 0 22 22" fill="none" xmlns="http://www.w3.org/2000/svg">
<path d="M0.5 2.93127C0.5 2.33454 0.737053 1.76224 1.15901 1.34028C1.58097 0.918327 2.15326 0.681274 2.75 0.681274H7.25C7.84674 0.681274 8.41903 0.918327 8.84099 1.34028C9.26295 1.76224 9.5 2.33454 9.5 2.93127V7.43127C9.5 8.02801 9.26295 8.60031 8.84099 9.02226C8.41903 9.44422 7.84674 9.68127 7.25 9.68127H2.75C2.15326 9.68127 1.58097 9.44422 1.15901 9.02226C0.737053 8.60031 0.5 8.02801 0.5 7.43127V2.93127ZM2.75 2.18127C2.55109 2.18127 2.36032 2.26029 2.21967 2.40094C2.07902 2.5416 2 2.73236 2 2.93127V7.43127C2 7.63019 2.07902 7.82095 2.21967 7.9616C2.36032 8.10226 2.55109 8.18127 2.75 8.18127H7.25C7.44891 8.18127 7.63968 8.10226 7.78033 7.9616C7.92098 7.82095 8 7.63019 8 7.43127V2.93127C8 2.73236 7.92098 2.5416 7.78033 2.40094C7.63968 2.26029 7.44891 2.18127 7.25 2.18127H2.75ZM12.5 2.93127C12.5 2.33454 12.7371 1.76224 13.159 1.34028C13.581 0.918327 14.1533 0.681274 14.75 0.681274H19.25C19.8467 0.681274 20.419 0.918327 20.841 1.34028C21.2629 1.76224 21.5 2.33454 21.5 2.93127V7.43127C21.5 8.02801 21.2629 8.60031 20.841 9.02226C20.419 9.44422 19.8467 9.68127 19.25 9.68127H14.75C14.1533 9.68127 13.581 9.44422 13.159 9.02226C12.7371 8.60031 12.5 8.02801 12.5 7.43127V2.93127ZM14.75 2.18127C14.5511 2.18127 14.3603 2.26029 14.2197 2.40094C14.079 2.5416 14 2.73236 14 2.93127V7.43127C14 7.63019 14.079 7.82095 14.2197 7.9616C14.3603 8.10226 14.5511 8.18127 14.75 8.18127H19.25C19.4489 8.18127 19.6397 8.10226 19.7803 7.9616C19.921 7.82095 20 7.63019 20 7.43127V2.93127C20 2.73236 19.921 2.5416 19.7803 2.40094C19.6397 2.26029 19.4489 2.18127 19.25 2.18127H14.75ZM0.5 14.9313C0.5 14.3345 0.737053 13.7622 1.15901 13.3403C1.58097 12.9183 2.15326 12.6813 2.75 12.6813H7.25C7.84674 12.6813 8.41903 12.9183 8.84099 13.3403C9.26295 13.7622 9.5 14.3345 9.5 14.9313V19.4313C9.5 20.028 9.26295 20.6003 8.84099 21.0223C8.41903 21.4442 7.84674 21.6813 7.25 21.6813H2.75C2.15326 21.6813 1.58097 21.4442 1.15901 21.0223C0.737053 20.6003 0.5 20.028 0.5 19.4313V14.9313ZM2.75 14.1813C2.55109 14.1813 2.36032 14.2603 2.21967 14.4009C2.07902 14.5416 2 14.7324 2 14.9313V19.4313C2 19.6302 2.07902 19.821 2.21967 19.9616C2.36032 20.1023 2.55109 20.1813 2.75 20.1813H7.25C7.44891 20.1813 7.63968 20.1023 7.78033 19.9616C7.92098 19.821 8 19.6302 8 19.4313V14.9313C8 14.7324 7.92098 14.5416 7.78033 14.4009C7.63968 14.2603 7.44891 14.1813 7.25 14.1813H2.75ZM12.5 14.9313C12.5 14.3345 12.7371 13.7622 13.159 13.3403C13.581 12.9183 14.1533 12.6813 14.75 12.6813H19.25C19.8467 12.6813 20.419 12.9183 20.841 13.3403C21.2629 13.7622 21.5 14.3345 21.5 14.9313V19.4313C21.5 20.028 21.2629 20.6003 20.841 21.0223C20.419 21.4442 19.8467 21.6813 19.25 21.6813H14.75C14.1533 21.6813 13.581 21.4442 13.159 21.0223C12.7371 20.6003 12.5 20.028 12.5 19.4313V14.9313ZM14.75 14.1813C14.5511 14.1813 14.3603 14.2603 14.2197 14.4009C14.079 14.5416 14 14.7324 14 14.9313V19.4313C14 19.6302 14.079 19.821 14.2197 19.9616C14.3603 20.1023 14.5511 20.1813 14.75 20.1813H19.25C19.4489 20.1813 19.6397 20.1023 19.7803 19.9616C19.921 19.821 20 19.6302 20 19.4313V14.9313C20 14.7324 19.921 14.5416 19.7803 14.4009C19.6397 14.2603 19.4489 14.1813 19.25 14.1813H14.75Z" fill="#6F767D"/>
</svg>
