<svg width="20" height="20" viewBox="0 0 20 20" fill="none" xmlns="http://www.w3.org/2000/svg">
<path fill-rule="evenodd" clip-rule="evenodd" d="M14.2332 5.44097C14.2702 5.52728 14.2881 5.62059 14.2855 5.71446V8.57157H12.857V7.14301H8.57132C8.1928 7.14188 7.83009 6.99101 7.56243 6.72335C7.29477 6.45569 7.1439 6.09299 7.14277 5.71446V1.4288H1.42855V18.5714H12.857V20H1.42855C1.04968 20 0.68632 19.8495 0.418414 19.5816C0.150508 19.3137 0 18.9503 0 18.5714V1.4288C0.00113051 1.05027 0.152002 0.687567 0.419663 0.419906C0.687324 0.152244 1.05003 0.00137339 1.42855 0.000242883H8.57132C8.6652 -0.00232556 8.75852 0.0155025 8.84484 0.0524973C8.93117 0.0894921 9.00843 0.144773 9.07132 0.214526L14.0713 5.21447C14.141 5.27738 14.1962 5.35465 14.2332 5.44097ZM8.57132 1.71451V5.71446H12.5713L8.57132 1.71451ZM19.9998 10.0001V11.4287H17.1426V12.8572H19.2855V14.2858H17.1426V17.1429H15.7141V10.0001H19.9998ZM9.2856 17.1429H12.1427C12.7108 17.1423 13.2556 16.9164 13.6573 16.5146C14.059 16.1129 14.285 15.5682 14.2855 15V12.1429C14.285 11.5748 14.059 11.0301 13.6573 10.6284C13.2556 10.2266 12.7108 10.0007 12.1427 10.0001H9.2856V17.1429ZM12.1427 15.7143H10.7142V11.4287H12.1427C12.3321 11.4289 12.5137 11.5042 12.6476 11.6381C12.7815 11.772 12.8568 11.9536 12.857 12.1429V15C12.8568 15.1894 12.7815 15.371 12.6476 15.5049C12.5137 15.6388 12.3321 15.7141 12.1427 15.7143ZM2.85711 10.0001H6.42849C6.80725 10.0005 7.17039 10.1511 7.43822 10.4189C7.70604 10.6868 7.85667 11.0499 7.85705 11.4287V13.5715C7.85648 13.9502 7.70579 14.3132 7.43801 14.581C7.17022 14.8488 6.8072 14.9995 6.42849 15H4.28566V17.1429H2.85711V10.0001ZM4.28566 11.4287V13.5715H6.42921L6.42849 11.4287H4.28566Z" fill="#343A40"/>
</svg>
