<svg width="25" height="24" viewBox="0 0 25 24" fill="none" xmlns="http://www.w3.org/2000/svg">
<path fill-rule="evenodd" clip-rule="evenodd" d="M11.252 2.69584C11.1442 2.48026 10.9393 2.32965 10.7014 2.29104C10.4634 2.25242 10.2214 2.33055 10.0509 2.50102L2.87593 9.67599C2.70546 9.84646 2.62733 10.0885 2.66594 10.3265C2.70455 10.5644 2.85517 10.7693 3.07075 10.8771L3.07188 10.8777L3.07698 10.8802L3.09905 10.8914C3.1189 10.9015 3.14884 10.9168 3.18781 10.9369C3.26579 10.9773 3.37981 11.037 3.52154 11.1133C3.80534 11.2661 4.19849 11.4845 4.63475 11.7463C5.52227 12.2788 6.53189 12.9576 7.18091 13.6066C7.45082 13.8765 7.76593 14.3695 8.09424 15.0261C8.41444 15.6665 8.71799 16.4022 8.98211 17.1065C9.24549 17.8088 9.46555 18.4689 9.61989 18.954C9.69696 19.1962 9.75739 19.394 9.79839 19.5307C9.81889 19.599 9.83451 19.652 9.84491 19.6875L9.85655 19.7275L9.85934 19.7372L9.85997 19.7394C9.93298 19.9949 10.1359 20.1931 10.3931 20.2598C10.6503 20.3265 10.9236 20.252 11.1116 20.0641L15.245 15.9307L20.8133 21.4991C21.1062 21.792 21.5811 21.792 21.874 21.4991C22.1669 21.2062 22.1669 20.7313 21.874 20.4384L16.3056 14.87L20.439 10.7366C20.6269 10.5487 20.7014 10.2754 20.6347 10.0182C20.568 9.76094 20.3702 9.55818 20.1147 9.48517L20.1122 9.48444L20.1025 9.48164L20.0624 9.47C20.0269 9.4596 19.9739 9.44398 19.9056 9.42348C19.7689 9.38248 19.5711 9.32205 19.3289 9.24498C18.8438 9.09064 18.1838 8.87058 17.4814 8.6072C16.7771 8.34309 16.0414 8.03953 15.401 7.71933C14.7444 7.39102 14.2514 7.07591 13.9815 6.806C13.3325 6.15698 12.6537 5.14736 12.1212 4.25985C11.8595 3.82358 11.641 3.43043 11.4882 3.14663C11.4119 3.0049 11.3522 2.89088 11.3119 2.81291C11.2917 2.77393 11.2764 2.74399 11.2663 2.72414L11.2551 2.70208L11.2526 2.69697L11.252 2.69584ZM18.5007 10.5537C18.055 10.4073 17.5189 10.2233 16.9547 10.0117C16.224 9.73768 15.4351 9.41343 14.7302 9.06097C14.0415 8.71663 13.3685 8.31425 12.9209 7.86666C12.1349 7.08068 11.3787 5.93781 10.835 5.03159C10.6712 4.75865 10.5237 4.50206 10.3972 4.27603L4.65094 10.0223C4.87697 10.1488 5.13356 10.2963 5.4065 10.4601C6.31272 11.0038 7.45559 11.76 8.24157 12.546C8.68916 12.9936 9.09154 13.6666 9.43588 14.3553C9.78834 15.0602 10.1126 15.8491 10.3866 16.5798C10.5982 17.144 10.7822 17.6801 10.9286 18.1258L18.5007 10.5537Z" fill="#343A40"/>
</svg>
