<svg width="20" height="20" viewBox="0 0 20 20" fill="none" xmlns="http://www.w3.org/2000/svg">
<path fill-rule="evenodd" clip-rule="evenodd" d="M5 1.93127C3.20507 1.93127 1.75 3.38635 1.75 5.18127V15.1813C1.75 16.9762 3.20507 18.4313 5 18.4313H15C16.7949 18.4313 18.25 16.9762 18.25 15.1813V5.18127C18.25 3.38635 16.7949 1.93127 15 1.93127H5ZM0.25 5.18127C0.25 2.55792 2.37665 0.431274 5 0.431274H15C17.6234 0.431274 19.75 2.55792 19.75 5.18127V15.1813C19.75 17.8046 17.6234 19.9313 15 19.9313H5C2.37665 19.9313 0.25 17.8046 0.25 15.1813V5.18127Z" fill="#049B8F"/>
<path fill-rule="evenodd" clip-rule="evenodd" d="M4.1875 1.36877C2.53065 1.36877 1.1875 2.71192 1.1875 4.36877V15.9938C1.1875 17.6506 2.53065 18.9938 4.1875 18.9938H15.8125C17.4694 18.9938 18.8125 17.6506 18.8125 15.9938V4.36877C18.8125 2.71192 17.4694 1.36877 15.8125 1.36877H4.1875ZM13.5472 8.69423C13.8305 8.39205 13.8151 7.91742 13.513 7.63412C13.2108 7.35083 12.7362 7.36614 12.4529 7.66832L9.20239 11.1355L7.49828 9.62072C7.18869 9.34553 6.71464 9.37342 6.43945 9.683C6.16426 9.99259 6.19215 10.4666 6.50174 10.7418L8.75174 12.7418C9.05554 13.0119 9.51916 12.9908 9.79716 12.6942L13.5472 8.69423Z" fill="#049B8F"/>
</svg>
