<svg width="24" height="24" viewBox="0 0 24 24" fill="none" xmlns="http://www.w3.org/2000/svg">
<path fill-rule="evenodd" clip-rule="evenodd" d="M13.9289 2.21429L18.9289 7.21429C19.0717 7.35714 19.1431 7.5 19.1431 7.71429V20.5714C19.1431 21.3571 18.5003 22 17.7146 22H6.28599C5.50028 22 4.85742 21.3571 4.85742 20.5714V3.42857C4.85742 2.64286 5.50028 2 6.28599 2H13.4289C13.6431 2 13.786 2.07143 13.9289 2.21429ZM17.4289 7.71429L13.4289 3.71429V7.71429H17.4289ZM6.28599 20.5714H17.7146V9.14286H13.4289C12.6431 9.14286 12.0003 8.5 12.0003 7.71429V3.42857H6.28599V20.5714ZM16.286 16.2857H7.71456V17.7143H16.286V16.2857ZM16.286 12H7.71456V13.4286H16.286V12Z" fill="#343A40"/>
</svg>
