<svg width="16" height="20" viewBox="0 0 16 20" fill="none" xmlns="http://www.w3.org/2000/svg">
<path fill-rule="evenodd" clip-rule="evenodd" d="M9.92885 0.214286L14.9289 5.21429C15.0717 5.35714 15.1431 5.5 15.1431 5.71429V18.5714C15.1431 19.3571 14.5003 20 13.7146 20H2.28599C1.50028 20 0.857422 19.3571 0.857422 18.5714V1.42857C0.857422 0.642857 1.50028 0 2.28599 0H9.42885C9.64314 0 9.78599 0.0714285 9.92885 0.214286ZM13.4289 5.71429L9.42885 1.71429V5.71429H13.4289ZM2.28599 18.5714H13.7146V7.14286H9.42885C8.64314 7.14286 8.00028 6.5 8.00028 5.71429V1.42857H2.28599V18.5714ZM12.286 14.2857H3.71456V15.7143H12.286V14.2857ZM12.286 10H3.71456V11.4286H12.286V10Z" fill="#343A40"/>
</svg>
