<svg width="5" height="16" viewBox="0 0 5 16" fill="none" xmlns="http://www.w3.org/2000/svg">
<path d="M0.5 8C0.5 8.53043 0.710714 9.03914 1.08579 9.41421C1.46086 9.78929 1.96957 10 2.5 10C3.03043 10 3.53914 9.78929 3.91421 9.41421C4.28929 9.03914 4.5 8.53043 4.5 8C4.5 7.46957 4.28929 6.96086 3.91421 6.58579C3.53914 6.21071 3.03043 6 2.5 6C1.96957 6 1.46086 6.21071 1.08579 6.58579C0.710714 6.96086 0.5 7.46957 0.5 8ZM0.5 2C0.5 2.53043 0.710714 3.03914 1.08579 3.41421C1.46086 3.78929 1.96957 4 2.5 4C3.03043 4 3.53914 3.78929 3.91421 3.41421C4.28929 3.03914 4.5 2.53043 4.5 2C4.5 1.46957 4.28929 0.960859 3.91421 0.585786C3.53914 0.210714 3.03043 -6.42368e-08 2.5 -8.74228e-08C1.96957 -1.10609e-07 1.46086 0.210713 1.08579 0.585786C0.710714 0.960859 0.5 1.46957 0.5 2ZM0.499999 14C0.499999 14.5304 0.710713 15.0391 1.08579 15.4142C1.46086 15.7893 1.96957 16 2.5 16C3.03043 16 3.53914 15.7893 3.91421 15.4142C4.28929 15.0391 4.5 14.5304 4.5 14C4.5 13.4696 4.28929 12.9609 3.91421 12.5858C3.53914 12.2107 3.03043 12 2.5 12C1.96957 12 1.46086 12.2107 1.08579 12.5858C0.710714 12.9609 0.499999 13.4696 0.499999 14Z" fill="#F8F9FA"/>
</svg>
