<svg width="20" height="20" viewBox="0 0 20 20" fill="none" xmlns="http://www.w3.org/2000/svg">
<path fill-rule="evenodd" clip-rule="evenodd" d="M8.877 0.69575C8.76917 0.480172 8.56429 0.329555 8.32636 0.290943C8.08839 0.252326 7.84637 0.330458 7.67589 0.500929L0.500929 7.67589C0.330458 7.84637 0.252326 8.08839 0.290943 8.32636C0.329555 8.56429 0.480172 8.76917 0.69575 8.877L0.696875 8.87756L0.701984 8.88013L0.724053 8.8913C0.743903 8.90139 0.773839 8.91669 0.812814 8.93685C0.890787 8.97718 1.00481 9.0369 1.14654 9.11322C1.43034 9.26603 1.82349 9.48446 2.25975 9.74622C3.14727 10.2787 4.15689 10.9575 4.80591 11.6065C5.07582 11.8764 5.39093 12.3694 5.71924 13.026C6.03944 13.6664 6.34299 14.4021 6.60711 15.1064C6.87049 15.8088 7.09055 16.4688 7.24489 16.9539C7.32196 17.1961 7.38239 17.3939 7.42339 17.5306C7.44389 17.5989 7.45951 17.6519 7.46991 17.6874L7.48155 17.7275L7.48434 17.7372L7.48497 17.7393C7.55798 17.9949 7.76085 18.193 8.01809 18.2597C8.27534 18.3264 8.54865 18.2519 8.73656 18.064L12.87 13.9306L18.4383 19.499C18.7312 19.7919 19.2061 19.7919 19.499 19.499C19.7919 19.2061 19.7919 18.7312 19.499 18.4383L13.9306 12.87L18.064 8.73656C18.2519 8.54865 18.3264 8.27534 18.2597 8.01809C18.193 7.76085 17.9952 7.55809 17.7397 7.48508L17.7372 7.48434L17.7275 7.48155L17.6874 7.46991C17.6519 7.45951 17.5989 7.44389 17.5306 7.42339C17.3939 7.38239 17.1961 7.32196 16.9539 7.24489C16.4688 7.09055 15.8088 6.87049 15.1064 6.60711C14.4021 6.34299 13.6664 6.03944 13.026 5.71924C12.3694 5.39093 11.8764 5.07582 11.6065 4.80591C10.9575 4.15689 10.2787 3.14727 9.74622 2.25975C9.48446 1.82349 9.26603 1.43034 9.11322 1.14654C9.0369 1.00481 8.97718 0.890787 8.93685 0.812814C8.91669 0.773839 8.90139 0.743903 8.8913 0.724053L8.88013 0.701984L8.87756 0.696875L8.877 0.69575ZM16.1257 8.55357C15.68 8.40724 15.1439 8.22317 14.5797 8.0116C13.849 7.73759 13.0601 7.41334 12.3552 7.06088C11.6665 6.71654 10.9935 6.31416 10.5459 5.86657C9.75991 5.08059 9.00371 3.93772 8.45998 3.0315C8.29621 2.75856 8.14872 2.50197 8.0222 2.27594L2.27594 8.0222C2.50197 8.14872 2.75856 8.29621 3.0315 8.45998C3.93772 9.00371 5.08059 9.75991 5.86657 10.5459C6.31416 10.9935 6.71654 11.6665 7.06088 12.3552C7.41334 13.0601 7.73759 13.849 8.0116 14.5797C8.22317 15.1439 8.40724 15.68 8.55357 16.1257L16.1257 8.55357Z" fill="#F8F9FA"/>
</svg>
