<svg width="20" height="20" viewBox="0 0 20 20" fill="none" xmlns="http://www.w3.org/2000/svg">
<path fill-rule="evenodd" clip-rule="evenodd" d="M8.877 0.695827C8.76917 0.480248 8.56429 0.329631 8.32636 0.29102C8.08839 0.252403 7.84637 0.330534 7.67589 0.501005L0.500929 7.67597C0.330458 7.84644 0.252326 8.08847 0.290943 8.32644C0.329555 8.56437 0.480172 8.76924 0.69575 8.87707L0.696875 8.87764L0.701984 8.88021L0.724053 8.89138C0.743903 8.90147 0.773839 8.91677 0.812814 8.93693C0.890787 8.97726 1.00481 9.03698 1.14654 9.11329C1.43034 9.26611 1.82349 9.48453 2.25975 9.74629C3.14727 10.2788 4.15689 10.9576 4.80591 11.6066C5.07582 11.8765 5.39093 12.3694 5.71924 13.0261C6.03944 13.6665 6.34299 14.4022 6.60711 15.1065C6.87049 15.8088 7.09055 16.4689 7.24489 16.954C7.32196 17.1962 7.38239 17.394 7.42339 17.5307C7.44389 17.599 7.45951 17.652 7.46991 17.6875L7.48155 17.7275L7.48434 17.7372L7.48497 17.7394C7.55798 17.9949 7.76085 18.1931 8.01809 18.2598C8.27534 18.3264 8.54865 18.252 8.73656 18.0641L12.87 13.9307L18.4383 19.4991C18.7312 19.792 19.2061 19.792 19.499 19.4991C19.7919 19.2062 19.7919 18.7313 19.499 18.4384L13.9306 12.87L18.064 8.73663C18.2519 8.54873 18.3264 8.27541 18.2597 8.01817C18.193 7.76093 17.9952 7.55816 17.7397 7.48516L17.7372 7.48442L17.7275 7.48163L17.6874 7.46999C17.6519 7.45959 17.5989 7.44396 17.5306 7.42347C17.3939 7.38247 17.1961 7.32204 16.9539 7.24497C16.4688 7.09063 15.8088 6.87056 15.1064 6.60718C14.4021 6.34307 13.6664 6.03952 13.026 5.71932C12.3694 5.39101 11.8764 5.07589 11.6065 4.80598C10.9575 4.15697 10.2787 3.14735 9.74622 2.25983C9.48446 1.82356 9.26603 1.43041 9.11322 1.14662C9.0369 1.00489 8.97718 0.890863 8.93685 0.812891C8.91669 0.773915 8.90139 0.74398 8.8913 0.72413L8.88013 0.70206L8.87756 0.696951L8.877 0.695827Z" fill="#F8F9FA"/>
</svg>
