<svg width="16" height="16" viewBox="0 0 16 16" fill="none" xmlns="http://www.w3.org/2000/svg">
<path fill-rule="evenodd" clip-rule="evenodd" d="M14.2249 15.1086C14.469 15.3527 14.8647 15.3527 15.1088 15.1086C15.3528 14.8645 15.3528 14.4688 15.1088 14.2247L8.88405 7.99998L15.1088 1.77526C15.3528 1.53118 15.3528 1.13545 15.1088 0.891371C14.8647 0.647294 14.469 0.647294 14.2249 0.891371L8.00016 7.1161L1.77544 0.891371C1.53136 0.647294 1.13563 0.647294 0.891554 0.891371C0.647477 1.13545 0.647477 1.53118 0.891554 1.77526L7.11628 7.99998L0.891555 14.2247C0.647477 14.4688 0.647477 14.8645 0.891555 15.1086C1.13563 15.3527 1.53136 15.3527 1.77544 15.1086L8.00016 8.88386L14.2249 15.1086Z" fill="#343A40"/>
</svg>
