<svg width="16" height="16" viewBox="0 0 16 16" fill="none" xmlns="http://www.w3.org/2000/svg">
<rect width="16" height="16" rx="8" fill="#F8F9FA"/>
<path fill-rule="evenodd" clip-rule="evenodd" d="M8.00001 14.6667C11.6819 14.6667 14.6667 11.6819 14.6667 8C14.6667 4.3181 11.6819 1.33333 8.00001 1.33333C4.31811 1.33333 1.33334 4.3181 1.33334 8C1.33334 11.6819 4.31811 14.6667 8.00001 14.6667ZM10.4396 7.44725L6.46724 11.4196C6.41252 11.4744 6.3437 11.5132 6.26847 11.5321L4.02772 11.9723L4.468 9.73117C4.48689 9.65612 4.52574 9.58758 4.58043 9.53283L8.55282 5.56044L10.4396 7.44725ZM11.9723 5.56044C11.9723 5.78713 11.8823 6.00454 11.722 6.16487L11.0441 6.84282L9.15724 4.95601L9.8352 4.27806C9.99552 4.11778 10.2129 4.02775 10.4396 4.02775C10.6663 4.02775 10.8837 4.11778 11.0441 4.27806L11.722 4.95601C11.8823 5.11633 11.9723 5.33374 11.9723 5.56044Z" fill="#1C7ED6"/>
</svg>
