<svg width="24" height="24" viewBox="0 0 24 24" fill="none" xmlns="http://www.w3.org/2000/svg">
<path fill-rule="evenodd" clip-rule="evenodd" d="M10.877 2.69581C10.7692 2.48023 10.5643 2.32962 10.3264 2.291C10.0884 2.25239 9.84637 2.33052 9.67589 2.50099L2.50093 9.67596C2.33046 9.84643 2.25233 10.0885 2.29094 10.3264C2.32955 10.5644 2.48017 10.7692 2.69575 10.8771L2.69688 10.8776L2.70198 10.8802L2.72405 10.8914C2.7439 10.9015 2.77384 10.9168 2.81281 10.9369C2.89079 10.9772 3.00481 11.037 3.14654 11.1133C3.43034 11.2661 3.82349 11.4845 4.25975 11.7463C5.14727 12.2788 6.15689 12.9576 6.80591 13.6066C7.07582 13.8765 7.39093 14.3694 7.71924 15.0261C8.03944 15.6664 8.34299 16.4022 8.60711 17.1065C8.87049 17.8088 9.09055 18.4689 9.24489 18.954C9.32196 19.1962 9.38239 19.394 9.42339 19.5306C9.44389 19.599 9.45951 19.6519 9.46991 19.6875L9.48155 19.7275L9.48434 19.7372L9.48497 19.7394C9.55798 19.9949 9.76085 20.1931 10.0181 20.2598C10.2753 20.3264 10.5486 20.252 10.7366 20.0641L14.87 15.9307L20.4383 21.4991C20.7312 21.792 21.2061 21.792 21.499 21.4991C21.7919 21.2062 21.7919 20.7313 21.499 20.4384L15.9306 14.87L20.064 10.7366C20.2519 10.5487 20.3264 10.2754 20.2597 10.0182C20.193 9.76091 19.9952 9.55815 19.7397 9.48514L19.7372 9.48441L19.7275 9.48161L19.6874 9.46997C19.6519 9.45957 19.5989 9.44395 19.5306 9.42345C19.3939 9.38245 19.1961 9.32202 18.9539 9.24495C18.4688 9.09061 17.8088 8.87055 17.1064 8.60717C16.4021 8.34306 15.6664 8.0395 15.026 7.7193C14.3694 7.39099 13.8764 7.07588 13.6065 6.80597C12.9575 6.15695 12.2787 5.14733 11.7462 4.25982C11.4845 3.82355 11.266 3.4304 11.1132 3.1466C11.0369 3.00487 10.9772 2.89085 10.9369 2.81288C10.9167 2.7739 10.9014 2.74396 10.8913 2.72411L10.8801 2.70205L10.8776 2.69694L10.877 2.69581Z" fill="#343A40"/>
</svg>
