<svg width="14" height="14" viewBox="0 0 14 14" fill="none" xmlns="http://www.w3.org/2000/svg">
<path fill-rule="evenodd" clip-rule="evenodd" d="M6.83045 0.835098C6.86006 1.10965 6.6615 1.35622 6.38695 1.38583C3.5568 1.69107 1.35303 4.08851 1.35303 6.99999C1.35303 9.91147 3.5568 12.3089 6.38695 12.6141C6.6615 12.6438 6.86006 12.8903 6.83045 13.1649C6.80084 13.4394 6.55427 13.638 6.27972 13.6084C2.94724 13.249 0.353027 10.4278 0.353027 6.99999C0.353027 3.57221 2.94724 0.751017 6.27972 0.391597C6.55427 0.361986 6.80084 0.560548 6.83045 0.835098ZM7.84513 0.8901C7.7855 1.15973 7.95573 1.42664 8.22536 1.48627C8.58445 1.56569 8.93066 1.67931 9.26047 1.82355C9.51347 1.9342 9.80828 1.8188 9.91893 1.5658C10.0296 1.3128 9.91418 1.018 9.66118 0.907345C9.27255 0.737374 8.86449 0.603462 8.44131 0.509869C8.17168 0.450238 7.90476 0.620473 7.84513 0.8901ZM10.5854 1.98161C10.4071 2.19245 10.4335 2.50794 10.6443 2.68626C11.1991 3.15545 11.662 3.72955 12.0025 4.37758C12.1309 4.62203 12.4332 4.71608 12.6777 4.58764C12.9221 4.4592 13.0162 4.15691 12.8877 3.91246C12.4869 3.14948 11.9423 2.47431 11.2901 1.92271C11.0792 1.74439 10.7637 1.77076 10.5854 1.98161ZM12.9382 5.32871C12.6672 5.38144 12.4902 5.64392 12.5429 5.91499C12.6112 6.26576 12.647 6.62849 12.647 7.00007C12.647 7.37166 12.6112 7.73439 12.5429 8.08516C12.4902 8.35623 12.6672 8.61871 12.9382 8.67144C13.2093 8.72416 13.4718 8.54717 13.5245 8.27611C13.6049 7.86276 13.647 7.43609 13.647 7.00007C13.647 6.56406 13.6049 6.13739 13.5245 5.72404C13.4718 5.45298 13.2093 5.27598 12.9382 5.32871ZM12.6777 9.41251C12.4332 9.28407 12.1309 9.37812 12.0025 9.62257C11.662 10.2706 11.1991 10.8447 10.6443 11.3139C10.4335 11.4922 10.4071 11.8077 10.5854 12.0185C10.7637 12.2294 11.0792 12.2558 11.2901 12.0774C11.9423 11.5258 12.4869 10.8507 12.8877 10.0877C13.0162 9.84324 12.9221 9.54095 12.6777 9.41251ZM9.91893 12.4343C9.80828 12.1813 9.51347 12.0659 9.26047 12.1766C8.93066 12.3208 8.58445 12.4345 8.22536 12.5139C7.95573 12.5735 7.7855 12.8404 7.84513 13.11C7.90476 13.3797 8.17168 13.5499 8.44131 13.4903C8.86449 13.3967 9.27255 13.2628 9.66118 13.0928C9.91418 12.9822 10.0296 12.6874 9.91893 12.4343ZM4.78186 7.50786C4.5866 7.70312 4.5866 8.0197 4.78186 8.21496L6.41074 9.84384C6.73618 10.1693 7.26382 10.1693 7.58926 9.84384L9.21814 8.21496C9.4134 8.0197 9.4134 7.70312 9.21814 7.50786C9.02287 7.31259 8.70629 7.31259 8.51103 7.50786L7.5 8.51889L7.5 4.41219C7.5 4.13605 7.27614 3.91219 7 3.91219C6.72386 3.91219 6.5 4.13605 6.5 4.41219L6.5 8.51889L5.48897 7.50786C5.29371 7.31259 4.97713 7.31259 4.78186 7.50786Z" fill="#F8F9FA"/>
</svg>
