<svg width="18" height="18" viewBox="0 0 18 18" fill="none" xmlns="http://www.w3.org/2000/svg">
<path fill-rule="evenodd" clip-rule="evenodd" d="M8.19126 1.94271C6.53402 1.94271 4.94465 2.60105 3.77281 3.77289C2.60096 4.94474 1.94263 6.5341 1.94263 8.19134C1.94263 9.84858 2.60096 11.4379 3.77281 12.6098C4.94465 13.7816 6.53402 14.44 8.19126 14.44C9.84214 14.44 11.4257 13.7867 12.5962 12.6232C12.6017 12.6174 12.6073 12.6116 12.613 12.6058C12.6183 12.6006 12.6236 12.5954 12.629 12.5904C13.7888 11.4205 14.4399 9.83946 14.4399 8.19134C14.4399 6.5341 13.7815 4.94474 12.6097 3.77289C11.4379 2.60105 9.84849 1.94271 8.19126 1.94271ZM13.9197 13.0302C15.0584 11.6822 15.6899 9.96934 15.6899 8.19134C15.6899 6.20258 14.8999 4.29527 13.4936 2.88901C12.0873 1.48274 10.18 0.692711 8.19126 0.692711C6.2025 0.692711 4.29519 1.48274 2.88892 2.88901C1.48266 4.29527 0.692627 6.20258 0.692627 8.19134C0.692627 10.1801 1.48266 12.0874 2.88892 13.4937C4.29519 14.8999 6.2025 15.69 8.19126 15.69C9.97198 15.69 11.6874 15.0566 13.0363 13.9146L16.2399 17.1238C16.4837 17.3681 16.8795 17.3685 17.1238 17.1246C17.3681 16.8808 17.3684 16.485 17.1245 16.2407L13.9197 13.0302Z" fill="#F8F9FA"/>
</svg>
