<svg width="18" height="17" viewBox="0 0 18 17" fill="none" xmlns="http://www.w3.org/2000/svg">
<path fill-rule="evenodd" clip-rule="evenodd" d="M8.19126 1.4427C6.53402 1.4427 4.94465 2.10104 3.77281 3.27288C2.60096 4.44473 1.94263 6.03409 1.94263 7.69133C1.94263 9.34857 2.60096 10.9379 3.77281 12.1098C4.94465 13.2816 6.53402 13.94 8.19126 13.94C9.84214 13.94 11.4257 13.2867 12.5962 12.1232C12.6017 12.1173 12.6073 12.1115 12.613 12.1058C12.6183 12.1006 12.6236 12.0954 12.629 12.0904C13.7888 10.9204 14.4399 9.33945 14.4399 7.69133C14.4399 6.03409 13.7815 4.44473 12.6097 3.27288C11.4379 2.10104 9.84849 1.4427 8.19126 1.4427ZM13.9197 12.5302C15.0584 11.1822 15.6899 9.46933 15.6899 7.69133C15.6899 5.70257 14.8999 3.79527 13.4936 2.389C12.0873 0.982735 10.18 0.192703 8.19126 0.192703C6.2025 0.192703 4.29519 0.982735 2.88892 2.389C1.48266 3.79527 0.692627 5.70257 0.692627 7.69133C0.692627 9.68009 1.48266 11.5874 2.88892 12.9937C4.29519 14.3999 6.2025 15.19 8.19126 15.19C9.97198 15.19 11.6874 14.5566 13.0363 13.4146L16.2399 16.6238C16.4837 16.8681 16.8795 16.8685 17.1238 16.6246C17.3681 16.3808 17.3684 15.985 17.1245 15.7407L13.9197 12.5302Z" fill="#343A40"/>
</svg>
