<svg width="18" height="17" viewBox="0 0 18 17" fill="none" xmlns="http://www.w3.org/2000/svg">
<path fill-rule="evenodd" clip-rule="evenodd" d="M8.19138 1.4427C6.53414 1.4427 4.94478 2.10104 3.77293 3.27288C2.60108 4.44473 1.94275 6.03409 1.94275 7.69133C1.94275 9.34857 2.60108 10.9379 3.77293 12.1098C4.94478 13.2816 6.53414 13.94 8.19138 13.94C9.84226 13.94 11.4258 13.2867 12.5963 12.1232C12.6018 12.1173 12.6074 12.1115 12.6131 12.1058C12.6184 12.1006 12.6237 12.0954 12.6291 12.0904C13.7889 10.9204 14.44 9.33945 14.44 7.69133C14.44 6.03409 13.7817 4.44473 12.6098 3.27288C11.438 2.10104 9.84862 1.4427 8.19138 1.4427ZM13.9198 12.5302C15.0586 11.1822 15.69 9.46933 15.69 7.69133C15.69 5.70257 14.9 3.79527 13.4937 2.389C12.0874 0.982735 10.1801 0.192703 8.19138 0.192703C6.20262 0.192703 4.29531 0.982735 2.88905 2.389C1.48278 3.79527 0.692749 5.70257 0.692749 7.69133C0.692749 9.68009 1.48278 11.5874 2.88905 12.9937C4.29531 14.3999 6.20262 15.19 8.19138 15.19C9.9721 15.19 11.6875 14.5566 13.0364 13.4146L16.24 16.6238C16.4839 16.8681 16.8796 16.8685 17.1239 16.6246C17.3682 16.3808 17.3685 15.985 17.1247 15.7407L13.9198 12.5302Z" fill="#CED4DA"/>
</svg>
