<svg width="16" height="16" viewBox="0 0 16 16" fill="none" xmlns="http://www.w3.org/2000/svg">
<rect width="16" height="16" rx="8" fill="#F8F9FA"/>
<path fill-rule="evenodd" clip-rule="evenodd" d="M7.99998 1.33333C4.31816 1.33333 1.33331 4.31818 1.33331 8C1.33331 11.6818 4.31816 14.6667 7.99998 14.6667C11.6818 14.6667 14.6666 11.6818 14.6666 8C14.6666 4.31818 11.6818 1.33333 7.99998 1.33333ZM10.8897 6.87272C10.9429 6.8119 10.9834 6.74105 11.0088 6.66434C11.0342 6.58763 11.0441 6.50661 11.0377 6.42605C11.0314 6.34548 11.009 6.267 10.9718 6.19522C10.9347 6.12344 10.8836 6.05982 10.8215 6.00808C10.7594 5.95635 10.6876 5.91755 10.6103 5.89397C10.533 5.8704 10.4518 5.86252 10.3714 5.8708C10.291 5.87908 10.2131 5.90336 10.1422 5.9422C10.0714 5.98104 10.009 6.03366 9.95877 6.09696L7.35271 9.22363L6.00422 7.87454C5.88992 7.76414 5.73683 7.70305 5.57792 7.70444C5.41901 7.70582 5.267 7.76955 5.15464 7.88192C5.04227 7.99429 4.97853 8.1463 4.97715 8.30521C4.97577 8.46411 5.03685 8.61721 5.14725 8.73151L6.96543 10.5497C7.02498 10.6092 7.09628 10.6557 7.17478 10.6861C7.25327 10.7165 7.33725 10.7303 7.42135 10.7264C7.50546 10.7226 7.58784 10.7013 7.66326 10.6639C7.73867 10.6265 7.80546 10.5738 7.85937 10.5091L10.8897 6.87272Z" fill="#049B8F"/>
</svg>
