<svg width="16" height="16" viewBox="0 0 16 16" fill="none" xmlns="http://www.w3.org/2000/svg">
<rect width="16" height="16" rx="8" fill="#343A40"/>
<path fill-rule="evenodd" clip-rule="evenodd" d="M8 1.33334C4.31818 1.33334 1.33334 4.31819 1.33334 8.00001C1.33334 11.6818 4.31818 14.6667 8 14.6667C11.6818 14.6667 14.6667 11.6818 14.6667 8.00001C14.6667 4.31819 11.6818 1.33334 8 1.33334ZM10.8897 6.87274C10.9429 6.81191 10.9834 6.74106 11.0088 6.66435C11.0343 6.58765 11.0441 6.50662 11.0377 6.42606C11.0314 6.3455 11.009 6.26702 10.9719 6.19524C10.9347 6.12346 10.8836 6.05983 10.8215 6.0081C10.7595 5.95636 10.6877 5.91756 10.6104 5.89399C10.5331 5.87041 10.4518 5.86253 10.3714 5.87082C10.2911 5.8791 10.2131 5.90337 10.1423 5.94221C10.0714 5.98105 10.009 6.03367 9.95879 6.09698L7.35273 9.22365L6.00424 7.87456C5.88994 7.76416 5.73685 7.70307 5.57794 7.70445C5.41903 7.70583 5.26703 7.76957 5.15466 7.88194C5.04229 7.99431 4.97855 8.14631 4.97717 8.30522C4.97579 8.46413 5.03688 8.61722 5.14728 8.73153L6.96546 10.5497C7.02501 10.6092 7.0963 10.6557 7.1748 10.6861C7.2533 10.7165 7.33727 10.7303 7.42138 10.7265C7.50548 10.7226 7.58787 10.7013 7.66328 10.6639C7.7387 10.6265 7.80549 10.5738 7.8594 10.5091L10.8897 6.87274Z" fill="#049B8F"/>
</svg>
