<svg width="24" height="24" viewBox="0 0 24 24" fill="none" xmlns="http://www.w3.org/2000/svg">
<path fill-rule="evenodd" clip-rule="evenodd" d="M19.4697 20.5303C19.7626 20.8232 20.2374 20.8232 20.5303 20.5303C20.8232 20.2374 20.8232 19.7626 20.5303 19.4697L13.0607 12L20.5303 4.53033C20.8232 4.23744 20.8232 3.76256 20.5303 3.46967C20.2374 3.17678 19.7626 3.17678 19.4697 3.46967L12 10.9393L4.53033 3.46967C4.23744 3.17678 3.76256 3.17678 3.46967 3.46967C3.17678 3.76256 3.17678 4.23744 3.46967 4.53033L10.9393 12L3.46967 19.4697C3.17678 19.7626 3.17678 20.2374 3.46967 20.5303C3.76256 20.8232 4.23744 20.8232 4.53033 20.5303L12 13.0607L19.4697 20.5303Z" fill="#343A40"/>
</svg>
