<svg width="21" height="21" viewBox="0 0 21 21" fill="none" xmlns="http://www.w3.org/2000/svg">
<path fill-rule="evenodd" clip-rule="evenodd" d="M7.58333 2.83789C6.77792 2.83789 6.125 3.49081 6.125 4.29622V5.33789H5.08333C4.27792 5.33789 3.625 5.99081 3.625 6.79622V17.6296C3.625 18.435 4.27792 19.0879 5.08333 19.0879H13.4167C14.2221 19.0879 14.875 18.435 14.875 17.6296V16.5879H15.9167C16.7221 16.5879 17.375 15.935 17.375 15.1296V7.97473C17.375 7.58796 17.2214 7.21703 16.9479 6.94354L13.2694 3.26503C12.9959 2.99154 12.6249 2.83789 12.2382 2.83789H7.58333ZM13.625 16.5879V17.6296C13.625 17.7446 13.5317 17.8379 13.4167 17.8379H5.08333C4.96827 17.8379 4.875 17.7446 4.875 17.6296V6.79622C4.875 6.68116 4.96827 6.58789 5.08333 6.58789H6.125V15.1296C6.125 15.935 6.77792 16.5879 7.58333 16.5879H13.625ZM7.375 5.96289V15.1296C7.375 15.2446 7.46827 15.3379 7.58333 15.3379H14.25H15.9167C16.0317 15.3379 16.125 15.2446 16.125 15.1296V7.97473C16.125 7.91948 16.1031 7.86649 16.064 7.82742L12.3855 4.14891C12.3464 4.10984 12.2934 4.08789 12.2382 4.08789H7.58333C7.46827 4.08789 7.375 4.18116 7.375 4.29622V5.96289Z" fill="#343A40"/>
</svg>
