<svg width="14" height="14" viewBox="0 0 14 14" fill="none" xmlns="http://www.w3.org/2000/svg">
<path fill-rule="evenodd" clip-rule="evenodd" d="M5.00022 0.9375C5.32277 0.937393 5.63896 1.02714 5.91336 1.19668C6.18778 1.36624 6.40954 1.60891 6.55376 1.89746C6.55377 1.8975 6.55374 1.89743 6.55376 1.89746L7.1063 3.00255C7.16741 3.12486 7.26144 3.22783 7.37774 3.29973C7.49404 3.37163 7.62806 3.40971 7.76478 3.40972C7.76479 3.40972 7.76478 3.40972 7.76478 3.40972H11.9453C12.4058 3.40972 12.8473 3.59263 13.1729 3.91822C13.4985 4.2438 13.6814 4.68539 13.6814 5.14583V11.3264C13.6814 11.7868 13.4985 12.2284 13.1729 12.554C12.8473 12.8796 12.4058 13.0625 11.9453 13.0625H2.05642C1.59598 13.0625 1.15439 12.8796 0.828808 12.554C0.503224 12.2284 0.320312 11.7868 0.320312 11.3264V2.67361C0.320312 2.21317 0.503224 1.77158 0.828808 1.446C1.15439 1.12041 1.59598 0.9375 2.05642 0.9375H5.00022C5.00024 0.9375 5.00021 0.9375 5.00022 0.9375ZM5.38772 2.04739C5.27135 1.97549 5.13725 1.93744 5.00045 1.9375H2.05642C1.86119 1.9375 1.67396 2.01505 1.53591 2.1531C1.39787 2.29115 1.32031 2.47838 1.32031 2.67361V11.3264C1.32031 11.5216 1.39787 11.7088 1.53591 11.8469C1.67396 11.9849 1.86119 12.0625 2.05642 12.0625H11.9453C12.1405 12.0625 12.3278 11.9849 12.4658 11.8469C12.6039 11.7088 12.6814 11.5216 12.6814 11.3264V5.14583C12.6814 4.9506 12.6039 4.76337 12.4658 4.62532C12.3278 4.48728 12.1405 4.40972 11.9453 4.40972H7.76478C7.44231 4.40971 7.12619 4.31988 6.8519 4.15031C6.57764 3.98076 6.35602 3.73818 6.21187 3.44976C6.21185 3.44972 6.21189 3.4498 6.21187 3.44976L5.65933 2.34468C5.59818 2.22231 5.5041 2.1193 5.38772 2.04739Z" fill="#F8F9FA"/>
</svg>
