<svg width="25" height="24" viewBox="0 0 25 24" fill="none" xmlns="http://www.w3.org/2000/svg">
<path d="M12.75 14C13.2804 14 13.7891 13.7893 14.1642 13.4142C14.5393 13.0391 14.75 12.5304 14.75 12C14.75 11.4696 14.5393 10.9609 14.1642 10.5858C13.7891 10.2107 13.2804 10 12.75 10C12.2196 10 11.7109 10.2107 11.3358 10.5858C10.9607 10.9609 10.75 11.4696 10.75 12C10.75 12.5304 10.9607 13.0391 11.3358 13.4142C11.7109 13.7893 12.2196 14 12.75 14ZM6.75 14C7.28043 14 7.78914 13.7893 8.16421 13.4142C8.53929 13.0391 8.75 12.5304 8.75 12C8.75 11.4696 8.53929 10.9609 8.16421 10.5858C7.78914 10.2107 7.28043 10 6.75 10C6.21957 10 5.71086 10.2107 5.33579 10.5858C4.96071 10.9609 4.75 11.4696 4.75 12C4.75 12.5304 4.96071 13.0391 5.33579 13.4142C5.71086 13.7893 6.21957 14 6.75 14ZM18.75 14C19.2804 14 19.7891 13.7893 20.1642 13.4142C20.5393 13.0391 20.75 12.5304 20.75 12C20.75 11.4696 20.5393 10.9609 20.1642 10.5858C19.7891 10.2107 19.2804 10 18.75 10C18.2196 10 17.7109 10.2107 17.3358 10.5858C16.9607 10.9609 16.75 11.4696 16.75 12C16.75 12.5304 16.9607 13.0391 17.3358 13.4142C17.7109 13.7893 18.2196 14 18.75 14Z" fill="#343A40"/>
</svg>
