<svg width="4" height="17" viewBox="0 0 4 17" fill="none" xmlns="http://www.w3.org/2000/svg">
<path d="M-3.49691e-07 8.09375C-3.72877e-07 8.62418 0.210714 9.13289 0.585786 9.50796C0.960859 9.88304 1.46957 10.0937 2 10.0937C2.53043 10.0937 3.03914 9.88304 3.41421 9.50796C3.78929 9.13289 4 8.62418 4 8.09375C4 7.56332 3.78929 7.05461 3.41421 6.67954C3.03914 6.30446 2.53043 6.09375 2 6.09375C1.46957 6.09375 0.960859 6.30446 0.585787 6.67954C0.210714 7.05461 -3.26505e-07 7.56332 -3.49691e-07 8.09375ZM-8.74228e-08 2.09375C-1.10609e-07 2.62418 0.210714 3.13289 0.585787 3.50796C0.960859 3.88304 1.46957 4.09375 2 4.09375C2.53043 4.09375 3.03914 3.88304 3.41421 3.50796C3.78929 3.13289 4 2.62418 4 2.09375C4 1.56332 3.78929 1.05461 3.41421 0.679536C3.03914 0.304464 2.53043 0.0937499 2 0.0937499C1.46957 0.0937499 0.96086 0.304463 0.585787 0.679536C0.210714 1.05461 -6.42368e-08 1.56332 -8.74228e-08 2.09375ZM-6.11959e-07 14.0937C-6.35145e-07 14.6242 0.210713 15.1329 0.585786 15.508C0.960859 15.883 1.46957 16.0937 2 16.0937C2.53043 16.0937 3.03914 15.883 3.41421 15.508C3.78929 15.1329 4 14.6242 4 14.0938C4 13.5633 3.78929 13.0546 3.41421 12.6795C3.03914 12.3045 2.53043 12.0937 2 12.0937C1.46957 12.0937 0.960859 12.3045 0.585786 12.6795C0.210714 13.0546 -5.88773e-07 13.5633 -6.11959e-07 14.0937Z" fill="#CED4DA"/>
</svg>
