<svg width="17" height="4" viewBox="0 0 17 4" fill="none" xmlns="http://www.w3.org/2000/svg">
<path d="M8.75 4C9.28043 4 9.78914 3.78929 10.1642 3.41421C10.5393 3.03914 10.75 2.53043 10.75 2C10.75 1.46957 10.5393 0.96086 10.1642 0.585787C9.78914 0.210714 9.28043 0 8.75 0C8.21957 0 7.71086 0.210714 7.33579 0.585787C6.96071 0.96086 6.75 1.46957 6.75 2C6.75 2.53043 6.96071 3.03914 7.33579 3.41421C7.71086 3.78929 8.21957 4 8.75 4ZM2.75 4C3.28043 4 3.78914 3.78929 4.16421 3.41421C4.53929 3.03914 4.75 2.53043 4.75 2C4.75 1.46957 4.53929 0.96086 4.16421 0.585787C3.78914 0.210714 3.28043 0 2.75 0C2.21957 0 1.71086 0.210714 1.33579 0.585787C0.960714 0.96086 0.75 1.46957 0.75 2C0.75 2.53043 0.960714 3.03914 1.33579 3.41421C1.71086 3.78929 2.21957 4 2.75 4ZM14.75 4C15.2804 4 15.7891 3.78929 16.1642 3.41421C16.5393 3.03914 16.75 2.53043 16.75 2C16.75 1.46957 16.5393 0.96086 16.1642 0.585787C15.7891 0.210714 15.2804 0 14.75 0C14.2196 0 13.7109 0.210714 13.3358 0.585787C12.9607 0.96086 12.75 1.46957 12.75 2C12.75 2.53043 12.9607 3.03914 13.3358 3.41421C13.7109 3.78929 14.2196 4 14.75 4Z" fill="#CED4DA"/>
</svg>
