<svg width="25" height="24" viewBox="0 0 25 24" fill="none" xmlns="http://www.w3.org/2000/svg">
<path d="M10.125 12C10.125 12.5304 10.3357 13.0391 10.7108 13.4142C11.0859 13.7893 11.5946 14 12.125 14C12.6554 14 13.1641 13.7893 13.5392 13.4142C13.9143 13.0391 14.125 12.5304 14.125 12C14.125 11.4696 13.9143 10.9609 13.5392 10.5858C13.1641 10.2107 12.6554 10 12.125 10C11.5946 10 11.0859 10.2107 10.7108 10.5858C10.3357 10.9609 10.125 11.4696 10.125 12ZM10.125 6C10.125 6.53043 10.3357 7.03914 10.7108 7.41421C11.0859 7.78929 11.5946 8 12.125 8C12.6554 8 13.1641 7.78929 13.5392 7.41421C13.9143 7.03914 14.125 6.53043 14.125 6C14.125 5.46957 13.9143 4.96086 13.5392 4.58579C13.1641 4.21071 12.6554 4 12.125 4C11.5946 4 11.0859 4.21071 10.7108 4.58579C10.3357 4.96086 10.125 5.46957 10.125 6ZM10.125 18C10.125 18.5304 10.3357 19.0391 10.7108 19.4142C11.0859 19.7893 11.5946 20 12.125 20C12.6554 20 13.1641 19.7893 13.5392 19.4142C13.9143 19.0391 14.125 18.5304 14.125 18C14.125 17.4696 13.9143 16.9609 13.5392 16.5858C13.1641 16.2107 12.6554 16 12.125 16C11.5946 16 11.0859 16.2107 10.7108 16.5858C10.3357 16.9609 10.125 17.4696 10.125 18Z" fill="#343A40"/>
</svg>
