<svg width="25" height="24" viewBox="0 0 25 24" fill="none" xmlns="http://www.w3.org/2000/svg">
<path fill-rule="evenodd" clip-rule="evenodd" d="M11.252 2.69575C11.1442 2.48017 10.9393 2.32955 10.7014 2.29094C10.4634 2.25233 10.2214 2.33046 10.0509 2.50093L2.87593 9.67589C2.70546 9.84637 2.62733 10.0884 2.66594 10.3264C2.70455 10.5643 2.85517 10.7692 3.07075 10.877L3.07188 10.8776L3.07698 10.8801L3.09905 10.8913C3.1189 10.9014 3.14884 10.9167 3.18781 10.9369C3.26579 10.9772 3.37981 11.0369 3.52154 11.1132C3.80534 11.266 4.19849 11.4845 4.63475 11.7462C5.52227 12.2787 6.53189 12.9575 7.18091 13.6065C7.45082 13.8764 7.76593 14.3694 8.09424 15.026C8.41444 15.6664 8.71799 16.4021 8.98211 17.1064C9.24549 17.8088 9.46555 18.4688 9.61989 18.9539C9.69696 19.1961 9.75739 19.3939 9.79839 19.5306C9.81889 19.5989 9.83451 19.6519 9.84491 19.6874L9.85655 19.7275L9.85934 19.7372L9.85997 19.7393C9.93298 19.9949 10.1359 20.193 10.3931 20.2597C10.6503 20.3264 10.9236 20.2519 11.1116 20.064L15.245 15.9306L20.8133 21.499C21.1062 21.7919 21.5811 21.7919 21.874 21.499C22.1669 21.2061 22.1669 20.7312 21.874 20.4383L16.3056 14.87L20.439 10.7366C20.6269 10.5486 20.7014 10.2753 20.6347 10.0181C20.568 9.76085 20.3702 9.55809 20.1147 9.48508L20.1122 9.48434L20.1025 9.48155L20.0624 9.46991C20.0269 9.45951 19.9739 9.44389 19.9056 9.42339C19.7689 9.38239 19.5711 9.32196 19.3289 9.24489C18.8438 9.09055 18.1838 8.87049 17.4814 8.60711C16.7771 8.34299 16.0414 8.03944 15.401 7.71924C14.7444 7.39093 14.2514 7.07582 13.9815 6.80591C13.3325 6.15689 12.6537 5.14727 12.1212 4.25975C11.8595 3.82349 11.641 3.43034 11.4882 3.14654C11.4119 3.00481 11.3522 2.89079 11.3119 2.81281C11.2917 2.77384 11.2764 2.7439 11.2663 2.72405L11.2551 2.70198L11.2526 2.69688L11.252 2.69575ZM18.5007 10.5536C18.055 10.4072 17.5189 10.2232 16.9547 10.0116C16.224 9.73759 15.4351 9.41334 14.7302 9.06088C14.0415 8.71654 13.3685 8.31416 12.9209 7.86657C12.1349 7.08059 11.3787 5.93772 10.835 5.0315C10.6712 4.75856 10.5237 4.50197 10.3972 4.27594L4.65094 10.0222C4.87697 10.1487 5.13356 10.2962 5.4065 10.46C6.31272 11.0037 7.45559 11.7599 8.24157 12.5459C8.68916 12.9935 9.09154 13.6665 9.43588 14.3552C9.78834 15.0601 10.1126 15.849 10.3866 16.5797C10.5982 17.1439 10.7822 17.68 10.9286 18.1257L18.5007 10.5536Z" fill="#343A40"/>
</svg>
