<svg width="14" height="14" viewBox="0 0 14 14" fill="none" xmlns="http://www.w3.org/2000/svg">
<path fill-rule="evenodd" clip-rule="evenodd" d="M6.83045 0.928848C6.86006 1.2034 6.6615 1.44997 6.38695 1.47958C3.5568 1.78482 1.35303 4.18226 1.35303 7.09374C1.35303 10.0052 3.5568 12.4027 6.38695 12.7079C6.6615 12.7375 6.86006 12.9841 6.83045 13.2586C6.80084 13.5332 6.55427 13.7317 6.27972 13.7021C2.94724 13.3427 0.353027 10.5215 0.353027 7.09374C0.353027 3.66596 2.94724 0.844767 6.27972 0.485347C6.55427 0.455736 6.80084 0.654298 6.83045 0.928848ZM7.84513 0.98385C7.7855 1.25348 7.95573 1.52039 8.22536 1.58002C8.58445 1.65944 8.93066 1.77306 9.26047 1.9173C9.51347 2.02795 9.80828 1.91255 9.91893 1.65955C10.0296 1.40655 9.91418 1.11175 9.66118 1.00109C9.27255 0.831124 8.86449 0.697212 8.44131 0.603619C8.17168 0.543988 7.90476 0.714223 7.84513 0.98385ZM10.5854 2.07536C10.4071 2.2862 10.4335 2.60169 10.6443 2.78001C11.1991 3.2492 11.662 3.8233 12.0025 4.47133C12.1309 4.71578 12.4332 4.80983 12.6777 4.68139C12.9221 4.55295 13.0162 4.25066 12.8877 4.00621C12.4869 3.24323 11.9423 2.56806 11.2901 2.01646C11.0792 1.83814 10.7637 1.86451 10.5854 2.07536ZM12.9382 5.42246C12.6672 5.47519 12.4902 5.73767 12.5429 6.00874C12.6112 6.35951 12.647 6.72224 12.647 7.09382C12.647 7.46541 12.6112 7.82814 12.5429 8.17891C12.4902 8.44998 12.6672 8.71246 12.9382 8.76519C13.2093 8.81791 13.4718 8.64092 13.5245 8.36986C13.6049 7.95651 13.647 7.52984 13.647 7.09382C13.647 6.65781 13.6049 6.23114 13.5245 5.81779C13.4718 5.54673 13.2093 5.36973 12.9382 5.42246ZM12.6777 9.50626C12.4332 9.37782 12.1309 9.47187 12.0025 9.71632C11.662 10.3643 11.1991 10.9384 10.6443 11.4076C10.4335 11.586 10.4071 11.9014 10.5854 12.1123C10.7637 12.3231 11.0792 12.3495 11.2901 12.1712C11.9423 11.6196 12.4869 10.9444 12.8877 10.1814C13.0162 9.93699 12.9221 9.6347 12.6777 9.50626ZM9.91893 12.5281C9.80828 12.2751 9.51347 12.1597 9.26047 12.2703C8.93066 12.4146 8.58445 12.5282 8.22536 12.6076C7.95573 12.6673 7.7855 12.9342 7.84513 13.2038C7.90476 13.4734 8.17168 13.6437 8.44131 13.584C8.86449 13.4904 9.27255 13.3565 9.66118 13.1866C9.91418 13.0759 10.0296 12.7811 9.91893 12.5281ZM4.78186 7.60161C4.5866 7.79687 4.5866 8.11345 4.78186 8.30871L6.41074 9.93759C6.73618 10.263 7.26382 10.263 7.58926 9.93759L9.21814 8.30871C9.4134 8.11345 9.4134 7.79687 9.21814 7.60161C9.02287 7.40634 8.70629 7.40634 8.51103 7.60161L7.5 8.61264L7.5 4.50594C7.5 4.2298 7.27614 4.00594 7 4.00594C6.72386 4.00594 6.5 4.2298 6.5 4.50594L6.5 8.61264L5.48897 7.60161C5.29371 7.40634 4.97713 7.40634 4.78186 7.60161Z" fill="#343A40"/>
</svg>
