<svg width="20" height="20" viewBox="0 0 20 20" fill="none" xmlns="http://www.w3.org/2000/svg">
<path fill-rule="evenodd" clip-rule="evenodd" d="M9.19138 2.94272C7.53414 2.94272 5.94478 3.60105 4.77293 4.7729C3.60108 5.94475 2.94275 7.53411 2.94275 9.19135C2.94275 10.8486 3.60108 12.438 4.77293 13.6098C5.94478 14.7816 7.53414 15.44 9.19138 15.44C10.8423 15.44 12.4258 14.7867 13.5963 13.6233C13.6018 13.6174 13.6074 13.6116 13.6131 13.6058C13.6184 13.6006 13.6237 13.5954 13.6291 13.5904C14.7889 12.4205 15.44 10.8395 15.44 9.19135C15.44 7.53411 14.7817 5.94474 13.6098 4.7729C12.438 3.60105 10.8486 2.94272 9.19138 2.94272ZM14.9198 14.0302C16.0586 12.6822 16.69 10.9693 16.69 9.19135C16.69 7.20259 15.9 5.29528 14.4937 3.88902C13.0874 2.48275 11.1801 1.69272 9.19138 1.69272C7.20262 1.69272 5.29531 2.48275 3.88905 3.88902C2.48278 5.29528 1.69275 7.20259 1.69275 9.19135C1.69275 11.1801 2.48278 13.0874 3.88905 14.4937C5.29531 15.8999 7.20262 16.69 9.19138 16.69C10.9721 16.69 12.6875 16.0566 14.0364 14.9146L17.24 18.1238C17.4839 18.3681 17.8796 18.3685 18.1239 18.1246C18.3682 17.8808 18.3685 17.485 18.1247 17.2408L14.9198 14.0302Z" fill="#CED4DA"/>
</svg>
