<svg width="20" height="20" viewBox="0 0 20 20" fill="none" xmlns="http://www.w3.org/2000/svg">
<path fill-rule="evenodd" clip-rule="evenodd" d="M9.19101 2.94269C7.53377 2.94269 5.94441 3.60102 4.77256 4.77287C3.60072 5.94471 2.94238 7.53408 2.94238 9.19132C2.94238 10.8486 3.60072 12.4379 4.77256 13.6098C5.94441 14.7816 7.53377 15.4399 9.19101 15.4399C10.8419 15.4399 12.4254 14.7866 13.596 13.6232C13.6014 13.6173 13.607 13.6115 13.6128 13.6058C13.618 13.6006 13.6234 13.5954 13.6288 13.5904C14.7885 12.4204 15.4396 10.8394 15.4396 9.19132C15.4396 7.53408 14.7813 5.94471 13.6095 4.77287C12.4376 3.60102 10.8483 2.94269 9.19101 2.94269ZM14.9195 14.0302C16.0582 12.6822 16.6896 10.9693 16.6896 9.19132C16.6896 7.20256 15.8996 5.29525 14.4933 3.88899C13.0871 2.48272 11.1798 1.69269 9.19101 1.69269C7.20225 1.69269 5.29495 2.48272 3.88868 3.88899C2.48241 5.29525 1.69238 7.20256 1.69238 9.19132C1.69238 11.1801 2.48241 13.0874 3.88868 14.4936C5.29495 15.8999 7.20225 16.6899 9.19101 16.6899C10.9717 16.6899 12.6872 16.0566 14.0361 14.9145L17.2396 18.1238C17.4835 18.3681 17.8792 18.3685 18.1235 18.1246C18.3678 17.8807 18.3682 17.485 18.1243 17.2407L14.9195 14.0302Z" fill="#343A40"/>
</svg>
