<svg width="20" height="21" viewBox="0 0 20 21" fill="none" xmlns="http://www.w3.org/2000/svg">
<path fill-rule="evenodd" clip-rule="evenodd" d="M9.19101 3.11353C7.53377 3.11353 5.94441 3.77186 4.77256 4.94371C3.60072 6.11555 2.94238 7.70491 2.94238 9.36215C2.94238 11.0194 3.60072 12.6088 4.77256 13.7806C5.94441 14.9524 7.53377 15.6108 9.19101 15.6108C10.8419 15.6108 12.4254 14.9575 13.596 13.7941C13.6014 13.7882 13.607 13.7824 13.6128 13.7766C13.618 13.7714 13.6234 13.7663 13.6288 13.7612C14.7885 12.5913 15.4396 11.0103 15.4396 9.36215C15.4396 7.70491 14.7813 6.11555 13.6095 4.94371C12.4376 3.77186 10.8483 3.11353 9.19101 3.11353ZM14.9195 14.201C16.0582 12.853 16.6896 11.1402 16.6896 9.36215C16.6896 7.37339 15.8996 5.46609 14.4933 4.05982C13.0871 2.65356 11.1798 1.86353 9.19101 1.86353C7.20225 1.86353 5.29495 2.65356 3.88868 4.05982C2.48241 5.46609 1.69238 7.37339 1.69238 9.36215C1.69238 11.3509 2.48241 13.2582 3.88868 14.6645C5.29495 16.0708 7.20225 16.8608 9.19101 16.8608C10.9717 16.8608 12.6872 16.2274 14.0361 15.0854L17.2396 18.2947C17.4835 18.5389 17.8792 18.5393 18.1235 18.2954C18.3678 18.0516 18.3682 17.6559 18.1243 17.4116L14.9195 14.201Z" fill="#049B8F"/>
</svg>
