<svg width="24" height="25" viewBox="0 0 24 25" fill="none" xmlns="http://www.w3.org/2000/svg">
<path fill-rule="evenodd" clip-rule="evenodd" d="M7 3.93127C5.20507 3.93127 3.75 5.38635 3.75 7.18127V17.1813C3.75 18.9762 5.20507 20.4313 7 20.4313H17C18.7949 20.4313 20.25 18.9762 20.25 17.1813V7.18127C20.25 5.38635 18.7949 3.93127 17 3.93127H7ZM2.25 7.18127C2.25 4.55792 4.37665 2.43127 7 2.43127H17C19.6234 2.43127 21.75 4.55792 21.75 7.18127V17.1813C21.75 19.8046 19.6234 21.9313 17 21.9313H7C4.37665 21.9313 2.25 19.8046 2.25 17.1813V7.18127Z" fill="#049B8F"/>
<path fill-rule="evenodd" clip-rule="evenodd" d="M6.1875 3.36877C4.53065 3.36877 3.1875 4.71192 3.1875 6.36877V17.9938C3.1875 19.6506 4.53065 20.9938 6.1875 20.9938H17.8125C19.4694 20.9938 20.8125 19.6506 20.8125 17.9938V6.36877C20.8125 4.71192 19.4694 3.36877 17.8125 3.36877H6.1875ZM15.5472 10.6942C15.8305 10.392 15.8151 9.91742 15.513 9.63412C15.2108 9.35083 14.7362 9.36614 14.4529 9.66832L11.2024 13.1355L9.49828 11.6207C9.18869 11.3455 8.71464 11.3734 8.43945 11.683C8.16426 11.9926 8.19215 12.4666 8.50174 12.7418L10.7517 14.7418C11.0555 15.0119 11.5192 14.9908 11.7972 14.6942L15.5472 10.6942Z" fill="#049B8F"/>
</svg>
