<svg width="20" height="20" viewBox="0 0 20 20" fill="none" xmlns="http://www.w3.org/2000/svg">
<path fill-rule="evenodd" clip-rule="evenodd" d="M10 0C4.47727 0 0 4.47727 0 10C0 15.5227 4.47727 20 10 20C15.5227 20 20 15.5227 20 10C20 4.47727 15.5227 0 10 0ZM14.3345 8.30909C14.4144 8.21786 14.4751 8.11158 14.5133 7.99652C14.5514 7.88145 14.5661 7.75992 14.5566 7.63908C14.5471 7.51823 14.5135 7.40051 14.4578 7.29284C14.4021 7.18517 14.3254 7.08973 14.2323 7.01213C14.1392 6.93453 14.0315 6.87633 13.9155 6.84097C13.7996 6.8056 13.6777 6.79378 13.5572 6.80621C13.4366 6.81863 13.3197 6.85504 13.2134 6.9133C13.1071 6.97156 13.0135 7.0505 12.9382 7.14545L9.02909 11.8355L7.00636 9.81182C6.83491 9.64622 6.60527 9.55459 6.36691 9.55666C6.12855 9.55873 5.90054 9.65434 5.73198 9.82289C5.56343 9.99145 5.46782 10.2195 5.46575 10.4578C5.46368 10.6962 5.55531 10.9258 5.72091 11.0973L8.44818 13.8245C8.53751 13.9138 8.64445 13.9835 8.7622 14.0291C8.87994 14.0748 9.00591 14.0954 9.13206 14.0897C9.25822 14.084 9.3818 14.052 9.49492 13.9959C9.60804 13.9397 9.70823 13.8606 9.78909 13.7636L14.3345 8.30909Z" fill="#37B24D"/>
</svg>
