<svg width="24" height="25" viewBox="0 0 24 25" fill="none" xmlns="http://www.w3.org/2000/svg">
<path fill-rule="evenodd" clip-rule="evenodd" d="M8.67279 8.26951C8.3799 7.97662 8.3799 7.50174 8.67279 7.20885L11.1161 4.76553C11.6043 4.27738 12.3957 4.27737 12.8839 4.76553L15.3272 7.20885C15.6201 7.50174 15.6201 7.97662 15.3272 8.26951C15.0343 8.56241 14.5594 8.56241 14.2665 8.26951L12.75 6.75297L12.75 15.913C12.75 16.3272 12.4142 16.663 12 16.663C11.5858 16.663 11.25 16.3272 11.25 15.913L11.25 6.75297L9.73346 8.26951C9.44056 8.56241 8.96569 8.56241 8.67279 8.26951ZM4.25 15.8505C4.25 15.4363 3.91421 15.1005 3.5 15.1005C3.08579 15.1005 2.75 15.4363 2.75 15.8505V17.8505C2.75 19.3693 3.98122 20.6005 5.5 20.6005H18.5C20.0188 20.6005 21.25 19.3693 21.25 17.8505V15.8505C21.25 15.4363 20.9142 15.1005 20.5 15.1005C20.0858 15.1005 19.75 15.4363 19.75 15.8505V17.8505C19.75 18.5409 19.1904 19.1005 18.5 19.1005H5.5C4.80964 19.1005 4.25 18.5409 4.25 17.8505V15.8505Z" fill="#049B8F"/>
</svg>
