<svg width="24" height="24" viewBox="0 0 24 24" fill="none" xmlns="http://www.w3.org/2000/svg">
<path d="M11.9697 6.96967C11.6768 7.26256 11.6768 7.73744 11.9697 8.03033C12.2626 8.32322 12.7374 8.32322 13.0303 8.03033L11.9697 6.96967ZM16.5 3.5L17.0303 2.96967C16.7374 2.67678 16.2626 2.67678 15.9697 2.96967L16.5 3.5ZM19.9697 8.03033C20.2626 8.32322 20.7374 8.32322 21.0303 8.03033C21.3232 7.73744 21.3232 7.26256 21.0303 6.96967L19.9697 8.03033ZM6.5 14.75C6.08579 14.75 5.75 15.0858 5.75 15.5C5.75 15.9142 6.08579 16.25 6.5 16.25V14.75ZM13.0303 8.03033L17.0303 4.03033L15.9697 2.96967L11.9697 6.96967L13.0303 8.03033ZM15.9697 4.03033L19.9697 8.03033L21.0303 6.96967L17.0303 2.96967L15.9697 4.03033ZM15.75 3.5V14.5H17.25V3.5H15.75ZM15.5 14.75H6.5V16.25H15.5V14.75ZM15.75 14.5C15.75 14.6381 15.6381 14.75 15.5 14.75V16.25C16.4665 16.25 17.25 15.4665 17.25 14.5H15.75Z" fill="white"/>
<path d="M20.9992 11.2002C20.5992 11.2002 20.1992 11.5002 20.1992 12.0002V18.0002C20.1992 18.7002 19.5992 19.2002 18.9992 19.2002H4.99922C4.29922 19.2002 3.79922 18.6002 3.79922 18.0002V6.0002C3.79922 5.3002 4.39922 4.8002 4.99922 4.8002H9.99922C10.3992 4.8002 10.7992 4.5002 10.7992 4.0002C10.7992 3.5002 10.3992 3.2002 9.99922 3.2002H4.99922C3.49922 3.2002 2.19922 4.5002 2.19922 6.0002V18.0002C2.19922 19.5002 3.39922 20.8002 4.99922 20.8002H18.9992C20.4992 20.8002 21.7992 19.6002 21.7992 18.0002V12.0002C21.7992 11.6002 21.3992 11.2002 20.9992 11.2002Z" fill="white"/>
</svg>
