<svg width="20" height="20" viewBox="0 0 20 20" fill="none" xmlns="http://www.w3.org/2000/svg">
<path fill-rule="evenodd" clip-rule="evenodd" d="M7.49919 2.42188C7.90237 2.42174 8.29762 2.53393 8.64061 2.74585C8.98365 2.95781 9.26084 3.26114 9.44111 3.62183C9.44113 3.62187 9.44109 3.62178 9.44111 3.62183L10.1318 5.00318C10.2082 5.15607 10.3257 5.28479 10.4711 5.37466C10.6165 5.46453 10.784 5.51214 10.9549 5.51215C10.9549 5.51215 10.9549 5.51215 10.9549 5.51215H16.1806C16.7561 5.51215 17.3081 5.74079 17.7151 6.14777C18.1221 6.55475 18.3507 7.10673 18.3507 7.68229V15.408C18.3507 15.9835 18.1221 16.5355 17.7151 16.9425C17.3081 17.3495 16.7561 17.5781 16.1806 17.5781H3.81945C3.24389 17.5781 2.69191 17.3495 2.28493 16.9425C1.87795 16.5355 1.64931 15.9835 1.64931 15.408V4.59201C1.64931 4.01646 1.87795 3.46447 2.28493 3.05749C2.69191 2.65051 3.24389 2.42188 3.81945 2.42188H7.49919C7.49918 2.42188 7.49921 2.42188 7.49919 2.42188ZM7.98357 3.80924C7.83811 3.71936 7.67048 3.6718 7.49949 3.67188H3.81945C3.57541 3.67188 3.34137 3.76882 3.16881 3.94138C2.99625 4.11394 2.89931 4.34798 2.89931 4.59201V15.408C2.89931 15.652 2.99625 15.8861 3.16881 16.0586C3.34137 16.2312 3.57541 16.3281 3.81945 16.3281H16.1806C16.4246 16.3281 16.6586 16.2312 16.8312 16.0586C17.0038 15.8861 17.1007 15.652 17.1007 15.408V7.68229C17.1007 7.43826 17.0038 7.20421 16.8312 7.03165C16.6586 6.8591 16.4246 6.76215 16.1806 6.76215H10.9549C10.5518 6.76214 10.1567 6.64986 9.81379 6.43789C9.47097 6.22595 9.19394 5.92272 9.01375 5.5622C9.01373 5.56216 9.01378 5.56224 9.01375 5.5622L8.32308 4.18085C8.24664 4.02789 8.12904 3.89912 7.98357 3.80924Z" fill="#F8F9FA"/>
<path fill-rule="evenodd" clip-rule="evenodd" d="M10.625 9.39209C10.625 9.04691 10.3452 8.76709 10 8.76709C9.65482 8.76709 9.375 9.04691 9.375 9.39209L9.375 10.7267L8.04037 10.7267C7.69519 10.7267 7.41537 11.0065 7.41537 11.3517C7.41537 11.6969 7.69519 11.9767 8.04037 11.9767H9.375L9.375 13.3114C9.375 13.6565 9.65482 13.9364 10 13.9364C10.3452 13.9364 10.625 13.6565 10.625 13.3114V11.9767H11.9596C12.3048 11.9767 12.5846 11.6969 12.5846 11.3517C12.5846 11.0065 12.3048 10.7267 11.9596 10.7267L10.625 10.7267V9.39209Z" fill="#F8F9FA"/>
</svg>
