<svg width="24" height="24" viewBox="0 0 24 24" fill="none" xmlns="http://www.w3.org/2000/svg">
<path fill-rule="evenodd" clip-rule="evenodd" d="M10.3681 3.29502C9.95649 3.04071 9.48219 2.90609 8.99838 2.90625H4.58268C3.89201 2.90625 3.22963 3.18062 2.74126 3.66899C2.25288 4.15737 1.97852 4.81975 1.97852 5.51042V18.4896C1.97852 19.1803 2.25288 19.8426 2.74126 20.331C3.22963 20.8194 3.89201 21.0938 4.58268 21.0938H19.416C20.1067 21.0938 20.7691 20.8194 21.2574 20.331C21.7458 19.8426 22.0202 19.1803 22.0202 18.4896V9.21875C22.0202 8.52808 21.7458 7.8657 21.2574 7.37733C20.7691 6.88895 20.1067 6.61458 19.416 6.61458H13.1452C12.9401 6.61457 12.7391 6.55744 12.5647 6.4496C12.3902 6.34175 12.2492 6.18728 12.1575 6.00382L11.3287 4.34619C11.1124 3.91337 10.7797 3.54937 10.3681 3.29502ZM8.99873 4.40625C9.20392 4.40615 9.40508 4.46324 9.57963 4.57109C9.75419 4.67895 9.89532 4.83347 9.98704 5.01701L10.8159 6.67464C11.0321 7.10727 11.3645 7.47114 11.7759 7.72547C12.1873 7.97983 12.6615 8.11457 13.1452 8.11458H19.416C19.7089 8.11458 19.9897 8.23091 20.1968 8.43799C20.4039 8.64506 20.5202 8.92591 20.5202 9.21875V18.4896C20.5202 18.7824 20.4039 19.0633 20.1968 19.2703C19.9897 19.4774 19.7089 19.5938 19.416 19.5938H4.58268C4.28984 19.5938 4.00899 19.4774 3.80192 19.2703C3.59485 19.0633 3.47852 18.7824 3.47852 18.4896V5.51042C3.47852 5.21757 3.59485 4.93672 3.80192 4.72965C4.00899 4.52258 4.28984 4.40625 4.58268 4.40625H8.99873ZM13.0021 10.5322C13.295 10.2393 13.7699 10.2393 14.0628 10.5322L16.5061 12.9755C16.9943 13.4636 16.9943 14.2551 16.5061 14.7433L14.0628 17.1866C13.7699 17.4795 13.295 17.4795 13.0021 17.1866C12.7092 16.8937 12.7092 16.4188 13.0021 16.1259L14.5187 14.6094L7.87622 14.6094C7.46201 14.6094 7.12622 14.2736 7.12622 13.8594C7.12622 13.4452 7.46201 13.1094 7.87622 13.1094L14.5187 13.1094L13.0021 11.5928C12.7092 11.2999 12.7092 10.8251 13.0021 10.5322Z" fill="white"/>
</svg>
