<svg width="16" height="17" viewBox="0 0 16 17" fill="none" xmlns="http://www.w3.org/2000/svg">
<path fill-rule="evenodd" clip-rule="evenodd" d="M12.9791 13.8682C13.1744 14.0634 13.491 14.0634 13.6862 13.8682C13.8815 13.6729 13.8815 13.3563 13.6862 13.1611L8.70646 8.18129L13.6862 3.20152C13.8815 3.00625 13.8815 2.68967 13.6862 2.49441C13.491 2.29915 13.1744 2.29915 12.9791 2.49441L7.99935 7.47419L3.01957 2.49441C2.82431 2.29915 2.50772 2.29915 2.31246 2.49441C2.1172 2.68967 2.1172 3.00625 2.31246 3.20152L7.29224 8.18129L2.31246 13.1611C2.1172 13.3563 2.1172 13.6729 2.31246 13.8682C2.50772 14.0634 2.82431 14.0634 3.01957 13.8682L7.99935 8.8884L12.9791 13.8682Z" fill="white"/>
</svg>
