<svg xmlns="http://www.w3.org/2000/svg" xmlns:xlink="http://www.w3.org/1999/xlink" viewBox="0 0 699.94 818.61"><defs><style>.cls-1{fill:#1b262c;}.cls-2{fill:url(#linear-gradient);}.cls-3{fill:url(#linear-gradient-2);}.cls-4{fill:#fff;}.cls-5{opacity:0.54;}.cls-6{fill:url(#linear-gradient-3);}.cls-7{fill:url(#linear-gradient-4);}.cls-8{fill:#bcbcbc;}.cls-16,.cls-9{fill:none;}.cls-10{fill:url(#linear-gradient-5);}.cls-11{fill:url(#linear-gradient-6);}.cls-12{fill:url(#linear-gradient-7);}.cls-13{fill:url(#linear-gradient-8);}.cls-14{fill:url(#linear-gradient-9);}.cls-15{fill:url(#linear-gradient-10);}.cls-16{stroke:#fff;stroke-linecap:round;stroke-linejoin:round;stroke-width:12px;}</style><linearGradient id="linear-gradient" x1="347.9" y1="113.38" x2="633.78" y2="284.97" gradientUnits="userSpaceOnUse"><stop offset="0" stop-color="#06b597"/><stop offset="0.14" stop-color="#08a88f"/><stop offset="0.41" stop-color="#0e857b"/><stop offset="0.76" stop-color="#174d5b"/><stop offset="0.83" stop-color="#194154"/></linearGradient><linearGradient id="linear-gradient-2" x1="296.47" y1="-10.62" x2="237.55" y2="762.18" gradientUnits="userSpaceOnUse"><stop offset="0.24" stop-color="#06b597"/><stop offset="0.35" stop-color="#0c9086" stop-opacity="0.96"/><stop offset="0.46" stop-color="#107279" stop-opacity="0.93"/><stop offset="0.56" stop-color="#135f70" stop-opacity="0.91"/><stop offset="0.62" stop-color="#14586d" stop-opacity="0.9"/><stop offset="0.7" stop-color="#155164" stop-opacity="0.91"/><stop offset="0.82" stop-color="#183f4c" stop-opacity="0.95"/><stop offset="0.95" stop-color="#1b262c"/></linearGradient><linearGradient id="linear-gradient-3" x1="274.47" y1="264.64" x2="482.99" y2="264.64" xlink:href="#linear-gradient"/><linearGradient id="linear-gradient-4" x1="276.93" y1="328.83" x2="474.19" y2="328.83" xlink:href="#linear-gradient"/><linearGradient id="linear-gradient-5" x1="342.84" y1="266.65" x2="565.17" y2="266.65" xlink:href="#linear-gradient"/><linearGradient id="linear-gradient-6" x1="345.46" y1="347.03" x2="555.79" y2="347.03" xlink:href="#linear-gradient"/><linearGradient id="linear-gradient-7" x1="348.54" y1="428.8" x2="558.87" y2="428.8" xlink:href="#linear-gradient"/><linearGradient id="linear-gradient-8" x1="353.63" y1="498.5" x2="563.96" y2="498.5" xlink:href="#linear-gradient"/><linearGradient id="linear-gradient-9" x1="357.01" y1="559.98" x2="567.35" y2="559.98" xlink:href="#linear-gradient"/><linearGradient id="linear-gradient-10" x1="360.78" y1="628.35" x2="571.11" y2="628.35" xlink:href="#linear-gradient"/></defs><g id="Layer_2" data-name="Layer 2"><g id="PHOTOS_copy" data-name="PHOTOS copy"><path class="cls-1" d="M693,193.63,393,28.91C339.65-.6,275.41-2.19,222.23,27.58L26.16,133.33C-.63,147.79-.74,186.19,26,200.8h0l128.68,70.65a17.67,17.67,0,0,1,9.16,15.48v60a17.66,17.66,0,0,1-26.16,15.48L53.05,316A17.65,17.65,0,0,0,26.9,331.39l-.1,30.45A17.65,17.65,0,0,0,36,377.37l79.17,43.47a17.67,17.67,0,0,1,9.16,15.48v41.52a17.65,17.65,0,0,1-26.15,15.48L52.92,468.5A17.65,17.65,0,0,0,26.77,484V652.79a28,28,0,0,0,14.51,24.56l3.15,1.74a36.49,36.49,0,0,0,34.54.35l63.58-33.35-34.7-89.29a3.91,3.91,0,0,1,5.53-4.84l45.77,25.19,19.46,50,36.71-19.26L255.6,630l-63.06,33.18,42.53,109.67a39.89,39.89,0,0,0,20.05,21.63c46.33,22.07,90.32,25.78,137.7.93l301.12-158V194.14Z"/><path class="cls-2" d="M325.64,227V9.09s30-1.1,49.2,11,319.1,174,319.1,174L513.56,288.58Z"/><path class="cls-3" d="M325.88,6.32c-3.67-.47-5.58-.65-9.26-.84v.23c-33.69-1-71.48,9-94.39,21.87L25.55,136.14c-26.23,14.48-25.63,52.39,1,66h0l127.58,69.47a18.46,18.46,0,0,1,9.64,16.22v57.8a18.47,18.47,0,0,1-27.3,16.21l-82.62-45a18.47,18.47,0,0,0-27.3,16.22V361.7a18.48,18.48,0,0,0,9.64,16.22l78.42,42.71a18.45,18.45,0,0,1,9.64,16.21V475.4A18.46,18.46,0,0,1,97,491.6L53.29,467.75A18.46,18.46,0,0,0,26,484V656.5c0,7.31,8.68,23.24,44.59,25.47l70.82-38.9L105.72,551.3l54.1,27.15,15.31,47.22L216.86,607l38.55,22.17-62.87,34.07,42.53,109.67s25.6-4.84,100.17-43.19c77.42-39.81,105.16-112.32,114.25-170.93l.06,0v-.46c7.73-50.31,1.75-90.26,1.75-90.26l-.27,0,.45-27.29c-1-56.22,32.23-128.93,100.36-172.12l-226-29.12Z"/><path class="cls-4" d="M531.92,123.1l-112.68,37-3.63,1.41L242.3,220.8l85.54,500.69,1.07-.1c-.64,7.25-1.07,11.49-1.07,11.49l3.82-11.82c35.45-5.45,21.26-48.51,25.55-79l5.28-16.34c37-60.89,24-163.19,29.78-245C396.8,317,432.83,255.74,488.21,224l38.38-19.6,15.39-7.8Z"/><g class="cls-5"><path class="cls-6" d="M281,310.9a6.57,6.57,0,0,1-2.47-12.65L474,218.87A6.56,6.56,0,1,1,478.89,231L283.5,310.42A6.5,6.5,0,0,1,281,310.9Z"/><path class="cls-7" d="M283.5,377.44a6.57,6.57,0,0,1-2.73-12.54L464.9,280.82a6.57,6.57,0,1,1,5.45,11.95L286.22,376.84A6.46,6.46,0,0,1,283.5,377.44Z"/></g><path class="cls-8" d="M577.53,162.78l-98.14,38-46.71,18.08h0L290.2,274l37.64,458.88c50.48-22.79,77.08-48.39,94.79-63.55a135.8,135.8,0,0,0,10.5-21.52c10.47-18.21,25.26-52.33,16.42-89-.15-.62-.29-1.23-.44-1.84,2.27-44.08.34-91,3.3-132.63q.3-4.15.77-8.29c6.93-60.67,42.21-118,95.18-148.42L586.73,248V240.5Z"/><path class="cls-9" d="M577.53,162.78l-98.14,38-46.71,18.08h0L290.2,274l37.12,452.58c66.13-28.06,96.29-63.76,109.62-104.92l-66.25,30.25a7,7,0,0,1-5.81-12.73l76.7-35c3.7-17.52,5-35.92,5.26-55L366.92,585.6a6.82,6.82,0,0,1-2.9.64,7,7,0,0,1-2.91-13.37l85.73-39.14c-.12-10.14-.43-20.45-.74-30.93q-.24-7.82-.45-15.74l-82.12,37.5a7,7,0,0,1-5.81-12.74l87.63-40c-.19-15.14,0-30.49,1.08-45.91.22-3.15.54-6.29.91-9.42l-88.89,40.59a7,7,0,1,1-5.82-12.73L450,399.89a207.14,207.14,0,0,1,27.93-69.56L355.37,386.28a7,7,0,1,1-5.82-12.73L495,307.14a189.27,189.27,0,0,1,49.61-41.43l.2-.11,41.93-22v-3.1Zm-16.73,68L352.47,315.46a7,7,0,0,1-5.27-13l208.33-84.65a7,7,0,1,1,5.27,13Z"/><path class="cls-10" d="M555.53,217.84,347.2,302.49a7,7,0,1,0,5.27,13L560.8,230.81a7,7,0,1,0-5.27-13Z"/><path class="cls-11" d="M346.09,382.82a7,7,0,0,0,9.28,3.46l122.55-55.95A201.77,201.77,0,0,1,495,307.14L349.55,373.55A7,7,0,0,0,346.09,382.82Z"/><path class="cls-12" d="M349.17,453.61a7,7,0,0,0,9.28,3.46l88.89-40.59q1-8.37,2.65-16.59l-97.36,44.45A7,7,0,0,0,349.17,453.61Z"/><path class="cls-13" d="M354.26,521.1a7,7,0,0,0,9.27,3.46l82.12-37.5q-.19-7.59-.3-15.25l-87.63,40A7,7,0,0,0,354.26,521.1Z"/><path class="cls-14" d="M357.65,582.14a7,7,0,0,0,6.37,4.1,6.82,6.82,0,0,0,2.9-.64l79.92-36.49c.07-5.08.06-10.21,0-15.38l-85.73,39.14A7,7,0,0,0,357.65,582.14Z"/><path class="cls-15" d="M361.42,648.45a7,7,0,0,0,9.27,3.46l66.25-30.25a172.7,172.7,0,0,0,4.64-17.51l-76.7,35A7,7,0,0,0,361.42,648.45Z"/><path class="cls-16" d="M693.94,194.14,547.59,270.91c-55.38,31.79-90.65,91.72-95.18,155.41-8.59,120.89,40,237.75-124.57,306.56"/><path class="cls-16" d="M26,200.8h0c-26.71-14.61-26.6-53,.19-67.47L222.23,27.58C275.41-2.19,339.65-.6,393,28.91L693,193.63"/><path class="cls-16" d="M101.87,710.67l48.57-25.48A6.13,6.13,0,0,1,159,688.4l26.49,68.17"/><path class="cls-16" d="M26,200.8l128.68,70.65a17.67,17.67,0,0,1,9.16,15.48v60a17.66,17.66,0,0,1-26.16,15.48L53.05,316A17.65,17.65,0,0,0,26.9,331.39l-.1,30.45A17.65,17.65,0,0,0,36,377.37l79.17,43.47a17.67,17.67,0,0,1,9.16,15.48v41.52a17.65,17.65,0,0,1-26.15,15.48L52.92,468.5A17.65,17.65,0,0,0,26.77,484V652.79a28,28,0,0,0,14.51,24.56l3.15,1.74a36.49,36.49,0,0,0,34.54.35l63.58-33.35-34.7-89.29a3.91,3.91,0,0,1,5.53-4.84l45.77,25.19,19.46,50,36.71-19.26L255.6,630l-63.06,33.18,42.53,109.67a39.89,39.89,0,0,0,20.05,21.63c46.33,22.07,90.32,25.78,137.7.93l301.12-158"/><line class="cls-16" x1="693.94" y1="194.14" x2="693.94" y2="636.97"/><path class="cls-4" d="M490.73,621.67,518.1,607.3v9.15l-20.81,10.93v28.08l19.22-10.09v9l-19.22,10.09v38.24l-6.56,3.45Z"/><path class="cls-4" d="M531.44,607.06c.07,3.73-1.58,7.61-4.22,9-2.34,1.23-4-.91-4-4.67s1.74-7.81,4.15-9.08S531.44,603.18,531.44,607.06Zm-7.39,81.62V628l6.64-3.48V685.2Z"/><path class="cls-4" d="M540.49,591l6.63-3.48v89l-6.63,3.48Z"/><path class="cls-4" d="M560.76,641.07c.15,14.84,5.88,18,12.52,14.49a31,31,0,0,0,10.1-8.44l1.13,7.3a38.19,38.19,0,0,1-12.14,10.14c-11.23,5.9-17.94-2.87-17.94-21.17s6.48-36.13,17.11-41.71c11.91-6.26,15.08,9.51,15.08,20.67,0,2.25-.15,4.09-.23,5.26ZM580.21,623c.08-7.06-1.73-17-9.2-13.1-6.71,3.53-9.65,15.35-10.17,23.28Z"/><path class="cls-4" d="M592.72,641.33a9.47,9.47,0,0,0,8.75-.2c4.82-2.53,7.08-7.73,7.08-12.75,0-5.26-1.88-7.16-6.78-7.59-6.56-.45-9.65-4.84-9.65-12.12,0-9.77,4.75-20.29,12.59-24.41,3.69-1.94,6.93-1.89,9-1l-1.66,8.9c-1.43-.76-4.07-1.38-7.46.4-3.92,2.06-6.11,7-6.11,11.49,0,5,2.19,6.12,6.94,6.64,6.33.68,9.57,4.25,9.57,13.27,0,10.66-5,20.8-13.64,25.35-4,2.1-7.69,2.41-10.26,1.24Z"/><path class="cls-4" d="M490.73,621.67,518.1,607.3v9.15l-20.81,10.93v28.08l19.22-10.09v9l-19.22,10.09v38.24l-6.56,3.45Z"/><path class="cls-4" d="M531.44,607.06c.07,3.73-1.58,7.61-4.22,9-2.34,1.23-4-.91-4-4.67s1.74-7.81,4.15-9.08S531.44,603.18,531.44,607.06Zm-7.39,81.62V628l6.64-3.48V685.2Z"/><path class="cls-4" d="M540.49,591l6.63-3.48v89l-6.63,3.48Z"/><path class="cls-4" d="M560.76,641.07c.15,14.84,5.88,18,12.52,14.49a31,31,0,0,0,10.1-8.44l1.13,7.3a38.19,38.19,0,0,1-12.14,10.14c-11.23,5.9-17.94-2.87-17.94-21.17s6.48-36.13,17.11-41.71c11.91-6.26,15.08,9.51,15.08,20.67,0,2.25-.15,4.09-.23,5.26ZM580.21,623c.08-7.06-1.73-17-9.2-13.1-6.71,3.53-9.65,15.35-10.17,23.28Z"/><path class="cls-4" d="M592.72,641.33a9.47,9.47,0,0,0,8.75-.2c4.82-2.53,7.08-7.73,7.08-12.75,0-5.26-1.88-7.16-6.78-7.59-6.56-.45-9.65-4.84-9.65-12.12,0-9.77,4.75-20.29,12.59-24.41,3.69-1.94,6.93-1.89,9-1l-1.66,8.9c-1.43-.76-4.07-1.38-7.46.4-3.92,2.06-6.11,7-6.11,11.49,0,5,2.19,6.12,6.94,6.64,6.33.68,9.57,4.25,9.57,13.27,0,10.66-5,20.8-13.64,25.35-4,2.1-7.69,2.41-10.26,1.24Z"/></g></g></svg>