<svg width="155" height="96" viewBox="0 0 155 96" fill="none" xmlns="http://www.w3.org/2000/svg">
<rect x="0.75" y="0.25" width="154" height="95.5" rx="9.75" fill="#495057"/>
<path d="M31.25 33C31.25 27.6152 35.6152 23.25 41 23.25H154.75V95.75H31.25V33Z" fill="#212529"/>
<path d="M46.6357 48L45.4053 44.8281H41.3994L40.1758 48H39L42.9102 37.9648H43.9561L47.8389 48H46.6357ZM45.0566 43.7959L43.8877 40.6445C43.8604 40.5625 43.8148 40.4281 43.751 40.2412C43.6917 40.0544 43.6302 39.8607 43.5664 39.6602C43.5026 39.4596 43.4502 39.2979 43.4092 39.1748C43.3636 39.3617 43.3135 39.5485 43.2588 39.7354C43.2087 39.9176 43.1585 40.0885 43.1084 40.248C43.0583 40.403 43.015 40.5352 42.9785 40.6445L41.7891 43.7959H45.0566ZM52.0584 40.3848C52.9516 40.3848 53.6147 40.5853 54.0477 40.9863C54.4806 41.3874 54.6971 42.0277 54.6971 42.9072V48H53.8699L53.6512 46.8926H53.5965C53.3868 47.166 53.1681 47.3962 52.9402 47.583C52.7124 47.7653 52.448 47.9043 52.1473 48C51.851 48.0911 51.4865 48.1367 51.0535 48.1367C50.5978 48.1367 50.1922 48.057 49.8367 47.8975C49.4858 47.738 49.2078 47.4964 49.0027 47.1729C48.8022 46.8493 48.702 46.4391 48.702 45.9424C48.702 45.195 48.9982 44.6208 49.5906 44.2197C50.1831 43.8187 51.0854 43.5999 52.2977 43.5635L53.5896 43.5088V43.0508C53.5896 42.4036 53.4507 41.9502 53.1727 41.6904C52.8947 41.4307 52.5027 41.3008 51.9969 41.3008C51.6049 41.3008 51.2312 41.3577 50.8758 41.4717C50.5203 41.5856 50.1831 41.7201 49.8641 41.875L49.5154 41.0137C49.8527 40.8405 50.24 40.6924 50.6775 40.5693C51.115 40.4463 51.5753 40.3848 52.0584 40.3848ZM53.576 44.3086L52.4344 44.3564C51.5001 44.3929 50.8416 44.5456 50.4588 44.8145C50.076 45.0833 49.8846 45.4639 49.8846 45.9561C49.8846 46.3844 50.0145 46.7012 50.2742 46.9062C50.534 47.1113 50.8781 47.2139 51.3064 47.2139C51.9718 47.2139 52.5164 47.0293 52.9402 46.6602C53.3641 46.291 53.576 45.7373 53.576 44.999V44.3086Z" fill="#F8F9FA"/>
<path d="M31.25 33C31.25 27.6152 35.6152 23.25 41 23.25H154.75V95.75H31.25V33Z" stroke="#495057" stroke-width="0.5"/>
<rect x="0.75" y="0.25" width="154" height="95.5" rx="9.75" stroke="#495057" stroke-width="0.5"/>
</svg>
