<svg width="155" height="96" viewBox="0 0 155 96" fill="none" xmlns="http://www.w3.org/2000/svg">
<rect x="0.25" y="0.25" width="154" height="95.5" rx="9.75" fill="#E9ECEF"/>
<path d="M29.75 33C29.75 27.6152 34.1152 23.25 39.5 23.25H154.25V95.75H29.75V33Z" fill="white"/>
<path d="M45.1357 48L43.9053 44.8281H39.8994L38.6758 48H37.5L41.4102 37.9648H42.4561L46.3389 48H45.1357ZM43.5566 43.7959L42.3877 40.6445C42.3604 40.5625 42.3148 40.4281 42.251 40.2412C42.1917 40.0544 42.1302 39.8607 42.0664 39.6602C42.0026 39.4596 41.9502 39.2979 41.9092 39.1748C41.8636 39.3617 41.8135 39.5485 41.7588 39.7354C41.7087 39.9176 41.6585 40.0885 41.6084 40.248C41.5583 40.403 41.515 40.5352 41.4785 40.6445L40.2891 43.7959H43.5566ZM50.5584 40.3848C51.4516 40.3848 52.1147 40.5853 52.5477 40.9863C52.9806 41.3874 53.1971 42.0277 53.1971 42.9072V48H52.3699L52.1512 46.8926H52.0965C51.8868 47.166 51.6681 47.3962 51.4402 47.583C51.2124 47.7653 50.948 47.9043 50.6473 48C50.351 48.0911 49.9865 48.1367 49.5535 48.1367C49.0978 48.1367 48.6922 48.057 48.3367 47.8975C47.9858 47.738 47.7078 47.4964 47.5027 47.1729C47.3022 46.8493 47.202 46.4391 47.202 45.9424C47.202 45.195 47.4982 44.6208 48.0906 44.2197C48.6831 43.8187 49.5854 43.5999 50.7977 43.5635L52.0896 43.5088V43.0508C52.0896 42.4036 51.9507 41.9502 51.6727 41.6904C51.3947 41.4307 51.0027 41.3008 50.4969 41.3008C50.1049 41.3008 49.7312 41.3577 49.3758 41.4717C49.0203 41.5856 48.6831 41.7201 48.3641 41.875L48.0154 41.0137C48.3527 40.8405 48.74 40.6924 49.1775 40.5693C49.615 40.4463 50.0753 40.3848 50.5584 40.3848ZM52.076 44.3086L50.9344 44.3564C50.0001 44.3929 49.3416 44.5456 48.9588 44.8145C48.576 45.0833 48.3846 45.4639 48.3846 45.9561C48.3846 46.3844 48.5145 46.7012 48.7742 46.9062C49.034 47.1113 49.3781 47.2139 49.8064 47.2139C50.4718 47.2139 51.0164 47.0293 51.4402 46.6602C51.8641 46.291 52.076 45.7373 52.076 44.999V44.3086Z" fill="#343A40"/>
<path d="M29.75 33C29.75 27.6152 34.1152 23.25 39.5 23.25H154.25V95.75H29.75V33Z" stroke="#E9ECEF" stroke-width="0.5"/>
<rect x="0.25" y="0.25" width="154" height="95.5" rx="9.75" stroke="#E9ECEF" stroke-width="0.5"/>
</svg>
