<svg width="25" height="24" viewBox="0 0 25 24" fill="none" xmlns="http://www.w3.org/2000/svg">
<path d="M16.4606 10.8301H13.4006L12.6406 13.1201H14.9306C15.7706 13.1201 16.4606 13.8001 16.4606 14.6501C16.4606 15.4901 15.7806 16.1801 14.9306 16.1801H12.6406" stroke="#F8F9FA" stroke-width="1.5" stroke-linecap="round" stroke-linejoin="round"/>
<path d="M10.0391 16.17V10.8301L8.53906 12.5001" stroke="#F8F9FA" stroke-width="1.5" stroke-linecap="round" stroke-linejoin="round"/>
<path d="M10.5195 4.46997L12.4995 2" stroke="#F8F9FA" stroke-width="1.5" stroke-linecap="round" stroke-linejoin="round"/>
<path d="M5.40936 7.79974C4.29936 9.27974 3.60938 11.1097 3.60938 13.1097C3.60938 18.0197 7.58939 21.9998 12.4994 21.9998C17.4094 21.9998 21.3894 18.0197 21.3894 13.1097C21.3894 8.19974 17.4094 4.21973 12.4994 4.21973C11.8194 4.21973 11.1594 4.30978 10.5194 4.45978" stroke="#F8F9FA" stroke-width="1.5" stroke-linecap="round" stroke-linejoin="round"/>
</svg>
