<svg width="25" height="24" viewBox="0 0 25 24" fill="none" xmlns="http://www.w3.org/2000/svg">
<path d="M16.4587 10.8301H13.3987L12.6387 13.1201H14.9286C15.7686 13.1201 16.4587 13.8001 16.4587 14.6501C16.4587 15.4901 15.7786 16.1801 14.9286 16.1801H12.6387" stroke="#F8F9FA" stroke-width="1.5" stroke-linecap="round" stroke-linejoin="round"/>
<path d="M10.0391 16.17V10.8301L8.53906 12.5001" stroke="#F8F9FA" stroke-width="1.5" stroke-linecap="round" stroke-linejoin="round"/>
<path d="M14.48 4.46997L12.5 2" stroke="#F8F9FA" stroke-width="1.5" stroke-linecap="round" stroke-linejoin="round"/>
<path d="M19.5894 7.79974C20.6994 9.27974 21.3894 11.1097 21.3894 13.1097C21.3894 18.0197 17.4094 21.9998 12.4994 21.9998C7.58939 21.9998 3.60938 18.0197 3.60938 13.1097C3.60938 8.19974 7.58939 4.21973 12.4994 4.21973C13.1794 4.21973 13.8394 4.30978 14.4794 4.45978" stroke="#F8F9FA" stroke-width="1.5" stroke-linecap="round" stroke-linejoin="round"/>
</svg>
