<svg width="24" height="24" viewBox="0 0 24 24" fill="none" xmlns="http://www.w3.org/2000/svg">
<path fill-rule="evenodd" clip-rule="evenodd" d="M10.8771 2.69587C10.7692 2.48029 10.5644 2.32968 10.3264 2.29107C10.0885 2.25245 9.84643 2.33058 9.67596 2.50105L2.50099 9.67602C2.33052 9.84649 2.25239 10.0885 2.291 10.3265C2.32962 10.5644 2.48023 10.7693 2.69581 10.8771L2.69694 10.8777L2.70205 10.8803L2.72411 10.8914C2.74396 10.9015 2.7739 10.9168 2.81288 10.937C2.89085 10.9773 3.00487 11.037 3.1466 11.1133C3.4304 11.2662 3.82355 11.4846 4.25982 11.7463C5.14733 12.2788 6.15695 12.9576 6.80597 13.6067C7.07588 13.8766 7.39099 14.3695 7.7193 15.0261C8.0395 15.6665 8.34306 16.4022 8.60717 17.1065C8.87055 17.8089 9.09061 18.4689 9.24495 18.954C9.32202 19.1962 9.38245 19.394 9.42345 19.5307C9.44395 19.599 9.45957 19.652 9.46997 19.6876L9.48161 19.7276L9.48441 19.7373L9.48503 19.7395C9.55804 19.995 9.76091 20.1932 10.0182 20.2598C10.2754 20.3265 10.5487 20.252 10.7366 20.0641L14.87 15.9307L20.4384 21.4991C20.7313 21.792 21.2062 21.792 21.4991 21.4991C21.792 21.2062 21.792 20.7314 21.4991 20.4385L15.9307 14.8701L20.0641 10.7367C20.252 10.5488 20.3264 10.2755 20.2598 10.0182C20.1931 9.76097 19.9953 9.55821 19.7398 9.4852L19.7372 9.48447L19.7275 9.48167L19.6875 9.47003C19.6519 9.45963 19.599 9.44401 19.5306 9.42351C19.394 9.38252 19.1962 9.32208 18.954 9.24501C18.4689 9.09067 17.8088 8.87061 17.1065 8.60723C16.4022 8.34312 15.6664 8.03956 15.0261 7.71936C14.3694 7.39105 13.8765 7.07594 13.6066 6.80603C12.9576 6.15701 12.2788 5.14739 11.7463 4.25988C11.4845 3.82361 11.2661 3.43046 11.1133 3.14666C11.037 3.00493 10.9772 2.89091 10.9369 2.81294C10.9168 2.77396 10.9015 2.74403 10.8914 2.72418L10.8802 2.70211L10.8776 2.697L10.8771 2.69587ZM18.1257 10.5537C17.68 10.4074 17.144 10.2233 16.5798 10.0117C15.8491 9.73771 15.0601 9.41346 14.3552 9.061C13.6665 8.71666 12.9935 8.31428 12.5459 7.86669C11.76 7.08072 11.0038 5.93784 10.46 5.03162C10.2963 4.75868 10.1488 4.50209 10.0223 4.27606L4.276 10.0223C4.50203 10.1488 4.75862 10.2963 5.03156 10.4601C5.93778 11.0038 7.08065 11.76 7.86663 12.546C8.31422 12.9936 8.7166 13.6666 9.06094 14.3553C9.4134 15.0602 9.73765 15.8492 10.0117 16.5798C10.2232 17.144 10.4073 17.6801 10.5536 18.1258L18.1257 10.5537Z" fill="#F8F9FA"/>
</svg>
