<svg width="24" height="24" viewBox="0 0 24 24" fill="none" xmlns="http://www.w3.org/2000/svg">
<path fill-rule="evenodd" clip-rule="evenodd" d="M10.877 2.69575C10.7692 2.48017 10.5643 2.32955 10.3264 2.29094C10.0884 2.25233 9.84637 2.33046 9.67589 2.50093L2.50093 9.67589C2.33046 9.84637 2.25233 10.0884 2.29094 10.3264C2.32955 10.5643 2.48017 10.7692 2.69575 10.877L2.69688 10.8776L2.70198 10.8801L2.72405 10.8913C2.7439 10.9014 2.77384 10.9167 2.81281 10.9369C2.89079 10.9772 3.00481 11.0369 3.14654 11.1132C3.43034 11.266 3.82349 11.4845 4.25975 11.7462C5.14727 12.2787 6.15689 12.9575 6.80591 13.6065C7.07582 13.8764 7.39093 14.3694 7.71924 15.026C8.03944 15.6664 8.34299 16.4021 8.60711 17.1064C8.87049 17.8088 9.09055 18.4688 9.24489 18.9539C9.32196 19.1961 9.38239 19.3939 9.42339 19.5306C9.44389 19.5989 9.45951 19.6519 9.46991 19.6874L9.48155 19.7275L9.48434 19.7372L9.48497 19.7393C9.55798 19.9949 9.76085 20.193 10.0181 20.2597C10.2753 20.3264 10.5486 20.2519 10.7366 20.064L14.87 15.9306L20.4383 21.499C20.7312 21.7919 21.2061 21.7919 21.499 21.499C21.7919 21.2061 21.7919 20.7312 21.499 20.4383L15.9306 14.87L20.064 10.7366C20.2519 10.5486 20.3264 10.2753 20.2597 10.0181C20.193 9.76085 19.9952 9.55809 19.7397 9.48508L19.7372 9.48434L19.7275 9.48155L19.6874 9.46991C19.6519 9.45951 19.5989 9.44389 19.5306 9.42339C19.3939 9.38239 19.1961 9.32196 18.9539 9.24489C18.4688 9.09055 17.8088 8.87049 17.1064 8.60711C16.4021 8.34299 15.6664 8.03944 15.026 7.71924C14.3694 7.39093 13.8764 7.07582 13.6065 6.80591C12.9575 6.15689 12.2787 5.14727 11.7462 4.25975C11.4845 3.82349 11.266 3.43034 11.1132 3.14654C11.0369 3.00481 10.9772 2.89079 10.9369 2.81281C10.9167 2.77384 10.9014 2.7439 10.8913 2.72405L10.8801 2.70198L10.8776 2.69688L10.877 2.69575Z" fill="#F8F9FA"/>
</svg>
