<svg width="225" height="224" viewBox="0 0 225 224" fill="none" xmlns="http://www.w3.org/2000/svg">
<rect x="0.5" width="224" height="224" fill="#D9D9D9"/>
<path d="M37.2793 87.392H49.8433V91.352H37.2793V87.392ZM37.6753 101H32.9953V75.8H51.3913V79.724H37.6753V101ZM55.4852 101V81.776H59.9852V101H55.4852ZM57.7532 78.608C56.9132 78.608 56.2172 78.344 55.6652 77.816C55.1372 77.288 54.8732 76.652 54.8732 75.908C54.8732 75.14 55.1372 74.504 55.6652 74C56.2172 73.472 56.9132 73.208 57.7532 73.208C58.5932 73.208 59.2772 73.46 59.8052 73.964C60.3572 74.444 60.6332 75.056 60.6332 75.8C60.6332 76.592 60.3692 77.264 59.8412 77.816C59.3132 78.344 58.6172 78.608 57.7532 78.608ZM65.8915 101V74.288H70.3915V101H65.8915ZM85.3337 101.252C83.1977 101.252 81.3257 100.832 79.7177 99.992C78.1337 99.128 76.8977 97.952 76.0097 96.464C75.1457 94.976 74.7137 93.284 74.7137 91.388C74.7137 89.468 75.1337 87.776 75.9737 86.312C76.8377 84.824 78.0137 83.66 79.5017 82.82C81.0137 81.98 82.7297 81.56 84.6497 81.56C86.5217 81.56 88.1897 81.968 89.6537 82.784C91.1177 83.6 92.2697 84.752 93.1097 86.24C93.9497 87.728 94.3697 89.48 94.3697 91.496C94.3697 91.688 94.3577 91.904 94.3337 92.144C94.3337 92.384 94.3217 92.612 94.2977 92.828H78.2777V89.84H91.9217L90.1577 90.776C90.1817 89.672 89.9537 88.7 89.4737 87.86C88.9937 87.02 88.3337 86.36 87.4937 85.88C86.6777 85.4 85.7297 85.16 84.6497 85.16C83.5457 85.16 82.5737 85.4 81.7337 85.88C80.9177 86.36 80.2697 87.032 79.7897 87.896C79.3337 88.736 79.1057 89.732 79.1057 90.884V91.604C79.1057 92.756 79.3697 93.776 79.8977 94.664C80.4257 95.552 81.1697 96.236 82.1297 96.716C83.0897 97.196 84.1937 97.436 85.4417 97.436C86.5217 97.436 87.4937 97.268 88.3577 96.932C89.2217 96.596 89.9897 96.068 90.6617 95.348L93.0737 98.12C92.2097 99.128 91.1177 99.908 89.7977 100.46C88.5017 100.988 87.0137 101.252 85.3337 101.252ZM116.885 101.36C114.917 101.36 113.033 101.084 111.233 100.532C109.433 99.956 108.005 99.224 106.949 98.336L108.569 94.7C109.577 95.492 110.825 96.152 112.313 96.68C113.801 97.208 115.325 97.472 116.885 97.472C118.205 97.472 119.273 97.328 120.089 97.04C120.905 96.752 121.505 96.368 121.889 95.888C122.273 95.384 122.465 94.82 122.465 94.196C122.465 93.428 122.189 92.816 121.637 92.36C121.085 91.88 120.365 91.508 119.477 91.244C118.613 90.956 117.641 90.692 116.561 90.452C115.505 90.212 114.437 89.936 113.357 89.624C112.301 89.288 111.329 88.868 110.441 88.364C109.577 87.836 108.869 87.14 108.317 86.276C107.765 85.412 107.489 84.308 107.489 82.964C107.489 81.596 107.849 80.348 108.569 79.22C109.313 78.068 110.429 77.156 111.917 76.484C113.429 75.788 115.337 75.44 117.641 75.44C119.153 75.44 120.653 75.632 122.141 76.016C123.629 76.4 124.925 76.952 126.029 77.672L124.553 81.308C123.425 80.636 122.261 80.144 121.061 79.832C119.861 79.496 118.709 79.328 117.605 79.328C116.309 79.328 115.253 79.484 114.437 79.796C113.645 80.108 113.057 80.516 112.673 81.02C112.313 81.524 112.133 82.1 112.133 82.748C112.133 83.516 112.397 84.14 112.925 84.62C113.477 85.076 114.185 85.436 115.049 85.7C115.937 85.964 116.921 86.228 118.001 86.492C119.081 86.732 120.149 87.008 121.205 87.32C122.285 87.632 123.257 88.04 124.121 88.544C125.009 89.048 125.717 89.732 126.245 90.596C126.797 91.46 127.073 92.552 127.073 93.872C127.073 95.216 126.701 96.464 125.957 97.616C125.237 98.744 124.121 99.656 122.609 100.352C121.097 101.024 119.189 101.36 116.885 101.36ZM132.515 108.236C131.579 108.236 130.643 108.08 129.707 107.768C128.771 107.456 127.991 107.024 127.367 106.472L129.167 103.16C129.623 103.568 130.139 103.892 130.715 104.132C131.291 104.372 131.879 104.492 132.479 104.492C133.295 104.492 133.955 104.288 134.459 103.88C134.963 103.472 135.431 102.788 135.863 101.828L136.979 99.308L137.339 98.768L144.611 81.776H148.931L139.931 102.548C139.331 103.988 138.659 105.128 137.915 105.968C137.195 106.808 136.379 107.396 135.467 107.732C134.579 108.068 133.595 108.236 132.515 108.236ZM136.475 101.684L127.799 81.776H132.479L139.535 98.372L136.475 101.684ZM162.651 81.56C164.187 81.56 165.555 81.86 166.755 82.46C167.979 83.06 168.939 83.984 169.635 85.232C170.331 86.456 170.679 88.04 170.679 89.984V101H166.179V90.56C166.179 88.856 165.771 87.584 164.955 86.744C164.163 85.904 163.047 85.484 161.607 85.484C160.551 85.484 159.615 85.7 158.799 86.132C157.983 86.564 157.347 87.212 156.891 88.076C156.459 88.916 156.243 89.984 156.243 91.28V101H151.743V81.776H156.027V86.96L155.271 85.376C155.943 84.152 156.915 83.216 158.187 82.568C159.483 81.896 160.971 81.56 162.651 81.56ZM185.243 101.252C183.227 101.252 181.427 100.832 179.843 99.992C178.283 99.128 177.059 97.952 176.171 96.464C175.283 94.976 174.839 93.284 174.839 91.388C174.839 89.468 175.283 87.776 176.171 86.312C177.059 84.824 178.283 83.66 179.843 82.82C181.427 81.98 183.227 81.56 185.243 81.56C187.115 81.56 188.759 81.944 190.175 82.712C191.615 83.456 192.707 84.56 193.451 86.024L189.995 88.04C189.419 87.128 188.711 86.456 187.871 86.024C187.055 85.592 186.167 85.376 185.207 85.376C184.103 85.376 183.107 85.616 182.219 86.096C181.331 86.576 180.635 87.272 180.131 88.184C179.627 89.072 179.375 90.14 179.375 91.388C179.375 92.636 179.627 93.716 180.131 94.628C180.635 95.516 181.331 96.2 182.219 96.68C183.107 97.16 184.103 97.4 185.207 97.4C186.167 97.4 187.055 97.184 187.871 96.752C188.711 96.32 189.419 95.648 189.995 94.736L193.451 96.752C192.707 98.192 191.615 99.308 190.175 100.1C188.759 100.868 187.115 101.252 185.243 101.252ZM74.0477 149V122.288H78.5477V149H74.0477ZM93.094 149.252C91.126 149.252 89.374 148.832 87.838 147.992C86.302 147.128 85.09 145.952 84.202 144.464C83.314 142.976 82.87 141.284 82.87 139.388C82.87 137.468 83.314 135.776 84.202 134.312C85.09 132.824 86.302 131.66 87.838 130.82C89.374 129.98 91.126 129.56 93.094 129.56C95.086 129.56 96.85 129.98 98.386 130.82C99.946 131.66 101.158 132.812 102.022 134.276C102.91 135.74 103.354 137.444 103.354 139.388C103.354 141.284 102.91 142.976 102.022 144.464C101.158 145.952 99.946 147.128 98.386 147.992C96.85 148.832 95.086 149.252 93.094 149.252ZM93.094 145.4C94.198 145.4 95.182 145.16 96.046 144.68C96.91 144.2 97.582 143.504 98.062 142.592C98.566 141.68 98.818 140.612 98.818 139.388C98.818 138.14 98.566 137.072 98.062 136.184C97.582 135.272 96.91 134.576 96.046 134.096C95.182 133.616 94.21 133.376 93.13 133.376C92.026 133.376 91.042 133.616 90.178 134.096C89.338 134.576 88.666 135.272 88.162 136.184C87.658 137.072 87.406 138.14 87.406 139.388C87.406 140.612 87.658 141.68 88.162 142.592C88.666 143.504 89.338 144.2 90.178 144.68C91.042 145.16 92.014 145.4 93.094 145.4ZM116.369 156.236C114.593 156.236 112.853 155.996 111.149 155.516C109.469 155.06 108.089 154.388 107.009 153.5L109.025 150.116C109.865 150.812 110.921 151.364 112.193 151.772C113.489 152.204 114.797 152.42 116.117 152.42C118.229 152.42 119.777 151.928 120.761 150.944C121.745 149.984 122.237 148.532 122.237 146.588V143.168L122.597 138.812L122.453 134.456V129.776H126.737V146.084C126.737 149.564 125.849 152.12 124.073 153.752C122.297 155.408 119.729 156.236 116.369 156.236ZM115.793 148.136C113.969 148.136 112.313 147.752 110.825 146.984C109.361 146.192 108.197 145.1 107.333 143.708C106.493 142.316 106.073 140.684 106.073 138.812C106.073 136.964 106.493 135.344 107.333 133.952C108.197 132.56 109.361 131.48 110.825 130.712C112.313 129.944 113.969 129.56 115.793 129.56C117.425 129.56 118.889 129.884 120.185 130.532C121.481 131.18 122.513 132.188 123.281 133.556C124.073 134.924 124.469 136.676 124.469 138.812C124.469 140.948 124.073 142.712 123.281 144.104C122.513 145.472 121.481 146.492 120.185 147.164C118.889 147.812 117.425 148.136 115.793 148.136ZM116.477 144.32C117.605 144.32 118.613 144.092 119.501 143.636C120.389 143.156 121.073 142.508 121.553 141.692C122.057 140.852 122.309 139.892 122.309 138.812C122.309 137.732 122.057 136.784 121.553 135.968C121.073 135.128 120.389 134.492 119.501 134.06C118.613 133.604 117.605 133.376 116.477 133.376C115.349 133.376 114.329 133.604 113.417 134.06C112.529 134.492 111.833 135.128 111.329 135.968C110.849 136.784 110.609 137.732 110.609 138.812C110.609 139.892 110.849 140.852 111.329 141.692C111.833 142.508 112.529 143.156 113.417 143.636C114.329 144.092 115.349 144.32 116.477 144.32ZM141.293 149.252C139.325 149.252 137.573 148.832 136.037 147.992C134.501 147.128 133.289 145.952 132.401 144.464C131.513 142.976 131.069 141.284 131.069 139.388C131.069 137.468 131.513 135.776 132.401 134.312C133.289 132.824 134.501 131.66 136.037 130.82C137.573 129.98 139.325 129.56 141.293 129.56C143.285 129.56 145.049 129.98 146.585 130.82C148.145 131.66 149.357 132.812 150.221 134.276C151.109 135.74 151.553 137.444 151.553 139.388C151.553 141.284 151.109 142.976 150.221 144.464C149.357 145.952 148.145 147.128 146.585 147.992C145.049 148.832 143.285 149.252 141.293 149.252ZM141.293 145.4C142.397 145.4 143.381 145.16 144.245 144.68C145.109 144.2 145.781 143.504 146.261 142.592C146.765 141.68 147.017 140.612 147.017 139.388C147.017 138.14 146.765 137.072 146.261 136.184C145.781 135.272 145.109 134.576 144.245 134.096C143.381 133.616 142.409 133.376 141.329 133.376C140.225 133.376 139.241 133.616 138.377 134.096C137.537 134.576 136.865 135.272 136.361 136.184C135.857 137.072 135.605 138.14 135.605 139.388C135.605 140.612 135.857 141.68 136.361 142.592C136.865 143.504 137.537 144.2 138.377 144.68C139.241 145.16 140.213 145.4 141.293 145.4Z" fill="black"/>
</svg>
